# This file uses centimeters as units for non-parametric coordinates.

mtllib Paintings.mtl
g default
v 1.260796 2.823797 -3.470563
v 1.267345 2.817248 -3.470563
v 1.276292 2.814851 -3.470563
v 1.276292 2.817248 -3.461617
v 1.276292 2.823797 -3.455068
v 1.276292 2.832744 -3.452671
v 1.267345 2.832744 -3.455068
v 1.260796 2.832744 -3.461617
v 1.258399 2.832744 -3.470563
v 3.046389 2.817248 -3.470563
v 3.052938 2.823797 -3.470563
v 3.055335 2.832744 -3.470563
v 3.052938 2.832744 -3.461617
v 3.046389 2.832744 -3.455068
v 3.037443 2.832744 -3.452671
v 3.037443 2.823797 -3.455068
v 3.037443 2.817248 -3.461617
v 3.037443 2.814851 -3.470563
v 1.267345 5.326091 -3.470563
v 1.260796 5.319542 -3.470563
v 1.258399 5.310596 -3.470563
v 1.260796 5.310596 -3.461617
v 1.267345 5.310596 -3.455068
v 1.276292 5.310596 -3.452671
v 1.276292 5.319542 -3.455068
v 1.276292 5.326091 -3.461617
v 1.276292 5.328488 -3.470563
v 3.052938 5.319542 -3.470563
v 3.046389 5.326091 -3.470563
v 3.037443 5.328488 -3.470563
v 3.037443 5.326091 -3.461617
v 3.037443 5.319542 -3.455068
v 3.037443 5.310596 -3.452671
v 3.046389 5.310596 -3.455068
v 3.052938 5.310596 -3.461617
v 3.055335 5.310596 -3.470563
v 1.267345 5.310596 -3.629216
v 1.260796 5.310596 -3.622667
v 1.258399 5.310596 -3.613720
v 1.260796 5.319542 -3.613720
v 1.267345 5.326091 -3.613720
v 1.276292 5.328488 -3.613720
v 1.276292 5.326091 -3.622667
v 1.276292 5.319542 -3.629216
v 1.276292 5.310596 -3.631613
v 3.052938 5.310596 -3.622667
v 3.046389 5.310596 -3.629216
v 3.037443 5.310596 -3.631613
v 3.037443 5.319542 -3.629216
v 3.037443 5.326091 -3.622667
v 3.037443 5.328488 -3.613720
v 3.046389 5.326091 -3.613720
v 3.052938 5.319542 -3.613720
v 3.055335 5.310596 -3.613720
v 1.267345 2.817248 -3.613720
v 1.260796 2.823797 -3.613720
v 1.258399 2.832744 -3.613720
v 1.260796 2.832744 -3.622667
v 1.267345 2.832744 -3.629216
v 1.276292 2.832744 -3.631613
v 1.276292 2.823797 -3.629216
v 1.276292 2.817248 -3.622667
v 1.276292 2.814851 -3.613720
v 3.052938 2.823797 -3.613720
v 3.046389 2.817248 -3.613720
v 3.037443 2.814851 -3.613720
v 3.037443 2.817248 -3.622667
v 3.037443 2.823797 -3.629216
v 3.037443 2.832744 -3.631613
v 3.046389 2.832744 -3.629216
v 3.052938 2.832744 -3.622667
v 3.055335 2.832744 -3.613720
v 1.262142 2.825013 -3.462832
v 1.268561 2.818594 -3.462832
v 1.268561 2.825013 -3.456414
v 3.045174 2.818594 -3.462832
v 3.051592 2.825013 -3.462832
v 3.045174 2.825013 -3.456414
v 1.268561 5.324746 -3.462832
v 1.262142 5.318327 -3.462832
v 1.268561 5.318327 -3.456414
v 3.051592 5.318327 -3.462832
v 3.045174 5.324746 -3.462832
v 3.045174 5.318327 -3.456414
v 1.268561 5.318327 -3.627870
v 1.262142 5.318327 -3.621451
v 1.268561 5.324746 -3.621451
v 3.051592 5.318327 -3.621451
v 3.045174 5.318327 -3.627870
v 3.045174 5.324746 -3.621451
v 1.268561 2.818594 -3.621451
v 1.262142 2.825013 -3.621451
v 1.268561 2.825013 -3.627870
v 3.051592 2.825013 -3.621451
v 3.045174 2.818594 -3.621451
v 3.045174 2.825013 -3.627870
vt 0.898293 0.540283
vt 0.898293 0.541661
vt 0.876247 0.541661
vt 0.876247 0.540283
vt 0.899671 0.541661
vt 0.899484 0.540471
vt 0.898293 0.923247
vt 0.876247 0.923247
vt 0.874869 0.541661
vt 0.875057 0.540471
vt 0.898293 0.539275
vt 0.876247 0.539275
vt 0.899671 0.923247
vt 0.899484 0.539482
vt 0.900472 0.540471
vt 0.900679 0.541661
vt 0.898293 0.924624
vt 0.876247 0.924624
vt 0.874869 0.923247
vt 0.873861 0.541661
vt 0.874068 0.540471
vt 0.875057 0.539482
vt 0.900679 0.923247
vt 0.899484 0.924437
vt 0.898293 0.925633
vt 0.876247 0.925633
vt 0.875057 0.924437
vt 0.873861 0.923247
vt 0.900472 0.924437
vt 0.899484 0.925426
vt 0.875057 0.925426
vt 0.874068 0.924437
vt 0.876247 0.541661
vt 0.876247 0.540283
vt 0.898293 0.540283
vt 0.898293 0.541661
vt 0.874869 0.541661
vt 0.875057 0.540470
vt 0.876247 0.539275
vt 0.898293 0.539275
vt 0.899671 0.541661
vt 0.899484 0.540470
vt 0.898293 0.923247
vt 0.876247 0.923247
vt 0.874869 0.923247
vt 0.873861 0.541661
vt 0.874068 0.540470
vt 0.875057 0.539482
vt 0.899484 0.539482
vt 0.899671 0.923247
vt 0.900472 0.540470
vt 0.900679 0.541661
vt 0.876247 0.924624
vt 0.898293 0.924624
vt 0.875057 0.924437
vt 0.873861 0.923247
vt 0.899484 0.924437
vt 0.900679 0.923247
vt 0.876247 0.925633
vt 0.898293 0.925633
vt 0.875057 0.925426
vt 0.874068 0.924437
vt 0.900472 0.924437
vt 0.899484 0.925426
vt 0.898283 0.867939
vt 0.898283 0.869316
vt 0.876257 0.869316
vt 0.876257 0.867939
vt 0.899660 0.867939
vt 0.899473 0.869128
vt 0.874881 0.867939
vt 0.875067 0.869128
vt 0.876257 0.596969
vt 0.898283 0.596969
vt 0.899660 0.596969
vt 0.900667 0.867939
vt 0.900460 0.869128
vt 0.874881 0.596969
vt 0.874080 0.869128
vt 0.873873 0.867939
vt 0.898283 0.595592
vt 0.876257 0.595592
vt 0.899473 0.595779
vt 0.900667 0.596969
vt 0.873873 0.596969
vt 0.875067 0.595779
vt 0.900460 0.595779
vt 0.874080 0.595779
vt 0.876257 0.869316
vt 0.876257 0.867939
vt 0.898283 0.867939
vt 0.898283 0.869316
vt 0.874881 0.867939
vt 0.875067 0.869129
vt 0.876257 0.596968
vt 0.898283 0.596968
vt 0.899659 0.867939
vt 0.899473 0.869129
vt 0.874881 0.596968
vt 0.874080 0.869129
vt 0.873873 0.867939
vt 0.876257 0.595592
vt 0.898283 0.595592
vt 0.899659 0.596968
vt 0.900667 0.867939
vt 0.900460 0.869129
vt 0.873873 0.596968
vt 0.875067 0.595779
vt 0.899473 0.595779
vt 0.900667 0.596968
vt 0.874080 0.595779
vt 0.900460 0.595779
vt 0.002660 0.278228
vt 0.002660 0.276875
vt 0.269081 0.276875
vt 0.269081 0.278228
vt 0.001307 0.278228
vt 0.001491 0.277059
vt 0.270434 0.278228
vt 0.270250 0.277059
vt 0.269081 0.653068
vt 0.002660 0.653068
vt 0.001307 0.653068
vt 0.270434 0.653068
vt 0.002660 0.654422
vt 0.269081 0.654422
vt 0.001491 0.654238
vt 0.270250 0.654238
vt 0.720667 0.506872
vt 0.720661 0.508225
vt 0.345825 0.506313
vt 0.345832 0.504959
vt 0.722014 0.508232
vt 0.721836 0.507062
vt 0.719301 0.774642
vt 0.344466 0.772730
vt 0.344472 0.506306
vt 0.344662 0.505137
vt 0.720654 0.774649
vt 0.719294 0.775995
vt 0.344459 0.774083
vt 0.343112 0.772723
vt 0.720465 0.775818
vt 0.343291 0.773893
vn -0.001334 -0.999875 0.015738
vn -0.257676 -0.966166 0.011226
vn -0.257677 -0.966166 -0.011226
vn -0.001334 -0.999875 -0.015738
vn -0.707064 -0.707051 0.011803
vn -0.866064 -0.499790 0.011923
vn -0.866064 -0.499790 -0.011923
vn -0.707063 -0.707052 -0.011803
vn -0.999876 -0.000950 0.015745
vn -0.999876 -0.000950 -0.015745
vn -0.001353 -0.000963 0.999999
vn -0.000954 -0.258716 0.965953
vn 0.000954 -0.258716 0.965953
vn 0.001353 -0.000963 0.999999
vn -0.001006 -0.707100 0.707113
vn -0.001006 -0.707100 0.707113
vn 0.001006 -0.707100 0.707113
vn 0.001006 -0.707100 0.707113
vn -0.000954 -0.965955 0.258709
vn 0.001334 -0.999875 0.015738
vn 0.000954 -0.965955 0.258709
vn -0.866031 -0.000722 0.499989
vn -0.866031 0.000722 0.499989
vn -0.999876 0.000950 0.015745
vn -0.707112 -0.000716 0.707101
vn -0.707112 0.000716 0.707101
vn -0.258742 -0.000679 0.965946
vn -0.001353 0.000963 0.999999
vn -0.258742 0.000679 0.965946
vn 0.999876 -0.000950 0.015744
vn 0.966163 -0.257689 0.011226
vn 0.966163 -0.257689 -0.011226
vn 0.999876 -0.000950 -0.015744
vn 0.707058 -0.707058 0.011804
vn 0.707058 -0.707058 0.011804
vn 0.707058 -0.707058 -0.011804
vn 0.707058 -0.707058 -0.011804
vn 0.257679 -0.966165 0.011226
vn 0.001334 -0.999875 -0.015738
vn 0.257679 -0.966165 -0.011226
vn 0.258742 -0.000679 0.965946
vn 0.258742 0.000679 0.965946
vn 0.001353 0.000963 0.999999
vn 0.707106 -0.000716 0.707107
vn 0.707106 -0.000716 0.707107
vn 0.707106 0.000716 0.707107
vn 0.707106 0.000716 0.707107
vn 0.965945 -0.000679 0.258746
vn 0.999876 0.000950 0.015744
vn 0.965945 0.000679 0.258746
vn -0.866064 0.499790 0.011924
vn -0.866065 0.499790 -0.011924
vn -0.999876 0.000950 -0.015745
vn -0.707076 0.707039 0.011805
vn -0.707076 0.707039 -0.011805
vn -0.257676 0.966166 0.011226
vn -0.001334 0.999875 0.015736
vn -0.001334 0.999875 -0.015736
vn -0.257677 0.966166 -0.011226
vn -0.000954 0.965962 0.258682
vn 0.000954 0.965962 0.258682
vn 0.001334 0.999875 0.015736
vn -0.001006 0.707085 0.707128
vn -0.001015 0.499986 0.866033
vn 0.001015 0.499986 0.866033
vn 0.001006 0.707085 0.707128
vn 0.257679 0.966165 0.011226
vn 0.257679 0.966165 -0.011226
vn 0.001334 0.999875 -0.015736
vn 0.707070 0.707045 0.011805
vn 0.866062 0.499795 0.011924
vn 0.866062 0.499794 -0.011925
vn 0.707070 0.707045 -0.011805
vn 0.999876 0.000950 -0.015744
vn -0.866031 0.000722 -0.499989
vn -0.866031 -0.000722 -0.499989
vn -0.707112 0.000716 -0.707101
vn -0.707112 -0.000716 -0.707101
vn -0.258742 0.000679 -0.965946
vn -0.001353 0.000963 -0.999999
vn -0.001353 -0.000963 -0.999999
vn -0.258742 -0.000679 -0.965946
vn -0.001015 0.499986 -0.866033
vn 0.001015 0.499986 -0.866033
vn 0.001353 0.000963 -0.999999
vn -0.001006 0.707085 -0.707128
vn 0.001006 0.707085 -0.707128
vn -0.000954 0.965962 -0.258682
vn 0.000954 0.965962 -0.258682
vn 0.258742 0.000679 -0.965946
vn 0.258742 -0.000679 -0.965946
vn 0.001353 -0.000963 -0.999999
vn 0.707106 0.000716 -0.707107
vn 0.707106 0.000716 -0.707107
vn 0.707106 -0.000716 -0.707107
vn 0.707106 -0.000716 -0.707107
vn 0.965945 0.000679 -0.258746
vn 0.965945 -0.000679 -0.258746
vn -0.000954 -0.965955 -0.258709
vn 0.000954 -0.965955 -0.258709
vn -0.001006 -0.707100 -0.707113
vn -0.001006 -0.707100 -0.707113
vn 0.001006 -0.707100 -0.707113
vn 0.001006 -0.707100 -0.707113
vn -0.000954 -0.258716 -0.965953
vn 0.000954 -0.258716 -0.965953
vn -0.946101 -0.229018 0.229005
vn -0.707847 -0.499478 0.499474
vn -0.499490 -0.707828 0.499490
vn -0.229012 -0.946102 0.229009
vn -0.499499 -0.499474 0.707832
vn -0.229009 -0.229015 0.946101
vn 0.229014 -0.946100 0.229014
vn 0.499477 -0.707832 0.499495
vn 0.707832 -0.499492 0.499482
vn 0.946100 -0.229016 0.229013
vn 0.499498 -0.499480 0.707828
vn 0.229017 -0.229017 0.946099
vn -0.229013 0.946101 0.229013
vn -0.499489 0.707825 0.499495
vn -0.707840 0.499479 0.499483
vn -0.946098 0.229024 0.229011
vn -0.499496 0.499481 0.707830
vn -0.228997 0.229023 0.946102
vn 0.946094 0.229029 0.229026
vn 0.707835 0.499491 0.499479
vn 0.499487 0.707830 0.499489
vn 0.229015 0.946101 0.229009
vn 0.499495 0.499486 0.707826
vn 0.229002 0.229021 0.946101
vn -0.229020 0.229020 -0.946097
vn -0.499494 0.499481 -0.707831
vn -0.707838 0.499480 -0.499485
vn -0.946102 0.229018 -0.229002
vn -0.499494 0.707822 -0.499493
vn -0.229024 0.946100 -0.229005
vn 0.946098 0.229016 -0.229022
vn 0.707833 0.499489 -0.499483
vn 0.499495 0.499484 -0.707828
vn 0.229022 0.229022 -0.946096
vn 0.499493 0.707827 -0.499488
vn 0.229026 0.946097 -0.229013
vn -0.229025 -0.946098 -0.229012
vn -0.499498 -0.707825 -0.499486
vn -0.707839 -0.499485 -0.499478
vn -0.946104 -0.229010 -0.229000
vn -0.499506 -0.499472 -0.707829
vn -0.228993 -0.229018 -0.946104
vn 0.946101 -0.229018 -0.229006
vn 0.707830 -0.499493 -0.499483
vn 0.499481 -0.707830 -0.499495
vn 0.229027 -0.946098 -0.229011
vn 0.499494 -0.499483 -0.707830
vn 0.229003 -0.229015 -0.946102
s 1
g Painting3 Paintings
usemtl lambert9SG
f 3/65/1 2/66/2 55/67/3 63/68/4
s 2
f 2/11/5 1/1/6 56/4/7 55/12/8
f 1/1/6 9/2/9 57/3/10 56/4/7
f 6/113/11 5/114/12 16/115/13 15/116/14
f 5/76/15 4/69/16 17/75/17 16/84/18
s 1
f 4/69/19 3/65/1 18/74/20 17/75/21
s 2
f 9/2/9 8/5/22 22/13/23 21/7/24
f 8/5/22 7/16/25 23/23/26 22/13/23
f 7/117/27 6/113/11 24/122/28 23/123/29
f 12/33/30 11/34/31 64/35/32 72/36/33
f 11/34/34 10/39/35 65/40/36 64/35/37
s 1
f 10/81/38 18/74/20 66/73/39 65/82/40
s 2
f 15/116/14 14/119/41 34/124/42 33/121/43
f 14/46/44 13/37/45 35/45/46 34/56/47
f 13/37/48 12/33/30 36/44/49 35/45/50
f 21/7/24 20/17/51 40/18/52 39/8/53
f 20/17/51 19/25/54 41/26/55 40/18/52
s 8
f 19/89/56 27/90/57 42/91/58 41/92/59
f 27/90/57 26/93/60 31/99/61 30/95/62
s 2
f 26/93/63 25/101/64 32/107/65 31/99/66
f 25/125/64 24/122/28 33/121/43 32/126/65
s 8
f 30/95/62 29/102/67 52/103/68 51/96/69
s 2
f 29/59/70 28/53/71 53/54/72 52/60/73
f 28/53/71 36/44/49 54/43/74 53/54/72
f 39/8/53 38/19/75 58/9/76 57/3/10
f 38/19/75 37/28/77 59/20/78 58/9/76
f 37/129/79 45/130/80 60/131/81 59/132/82
f 45/130/80 44/133/83 49/139/84 48/135/85
f 44/105/83 43/97/86 50/104/87 49/110/84
s 8
f 43/97/88 42/91/58 51/96/69 50/104/89
s 2
f 48/135/85 47/140/90 70/141/91 69/136/92
f 47/58/93 46/50/94 71/41/95 70/52/96
f 46/50/97 54/43/74 72/36/33 71/41/98
s 1
f 63/68/4 62/71/99 67/78/100 66/73/39
s 2
f 62/71/101 61/80/102 68/85/103 67/78/104
f 61/137/105 60/131/81 69/136/92 68/142/106
f 6/113/11 15/116/14 33/121/43 24/122/28
s 8
f 27/90/57 30/95/62 51/96/69 42/91/58
s 2
f 45/130/80 48/135/85 69/136/92 60/131/81
s 1
f 63/68/4 66/73/39 18/74/20 3/65/1
s 2
f 12/33/30 72/36/33 54/43/74 36/44/49
f 57/3/10 9/2/9 21/7/24 39/8/53
f 8/5/22 9/2/9 1/1/6 73/6/107
f 73/6/108 1/1/6 2/11/5 74/14/109
s 1
f 2/66/2 3/65/1 4/69/19 74/70/110
s 2
f 74/70/109 4/69/16 5/76/15 75/77/111
f 5/114/12 6/113/11 7/117/27 75/118/112
f 75/15/111 7/16/25 8/5/22 73/6/108
f 73/6/108 74/14/109 75/15/111
s 1
f 17/75/21 18/74/20 10/81/38 76/83/113
s 2
f 76/48/114 10/39/35 11/34/34 77/38/115
f 11/34/31 12/33/30 13/37/48 77/38/116
f 77/38/115 13/37/45 14/46/44 78/47/117
f 14/119/41 15/116/14 16/115/13 78/120/118
f 78/87/117 16/84/18 17/75/17 76/83/114
f 76/48/114 77/38/115 78/47/117
s 8
f 26/93/60 27/90/57 19/89/56 79/94/119
s 2
f 79/30/120 19/25/54 20/17/51 80/24/121
f 20/17/51 21/7/24 22/13/23 80/24/122
f 80/24/121 22/13/23 23/23/26 81/29/123
f 23/123/29 24/122/28 25/125/64 81/127/124
f 81/100/123 25/101/64 26/93/63 79/94/120
f 79/30/120 80/24/121 81/29/123
f 35/45/50 36/44/49 28/53/71 82/55/125
f 82/55/126 28/53/71 29/59/70 83/61/127
s 8
f 29/102/67 30/95/62 31/99/61 83/108/128
s 2
f 83/108/127 31/99/66 32/107/65 84/111/129
f 32/126/65 33/121/43 34/124/42 84/128/130
f 84/62/129 34/56/47 35/45/46 82/55/126
f 82/55/126 83/61/127 84/62/129
f 44/133/83 45/130/80 37/129/79 85/134/131
f 85/32/132 37/28/77 38/19/75 86/27/133
f 38/19/75 39/8/53 40/18/52 86/27/134
f 86/27/133 40/18/52 41/26/55 87/31/135
s 8
f 41/92/59 42/91/58 43/97/88 87/98/136
s 2
f 87/98/135 43/97/86 44/105/83 85/106/132
f 85/32/132 86/27/133 87/31/135
f 53/54/72 54/43/74 46/50/97 88/57/137
f 88/57/138 46/50/94 47/58/93 89/63/139
f 47/140/90 48/135/85 49/139/84 89/143/140
f 89/112/139 49/110/84 50/104/87 90/109/141
s 8
f 50/104/89 51/96/69 52/103/68 90/109/142
s 2
f 90/64/141 52/60/73 53/54/72 88/57/138
f 88/57/138 89/63/139 90/64/141
s 1
f 62/71/99 63/68/4 55/67/3 91/72/143
s 2
f 91/22/144 55/12/8 56/4/7 92/10/145
f 56/4/7 57/3/10 58/9/76 92/10/146
f 92/10/145 58/9/76 59/20/78 93/21/147
f 59/132/82 60/131/81 61/137/105 93/138/148
f 93/79/147 61/80/102 62/71/101 91/72/144
f 91/22/144 92/10/145 93/21/147
f 71/41/98 72/36/33 64/35/32 94/42/149
f 94/42/150 64/35/37 65/40/36 95/49/151
s 1
f 65/82/40 66/73/39 67/78/100 95/86/152
s 2
f 95/86/151 67/78/104 68/85/103 96/88/153
f 68/142/106 69/136/92 70/141/91 96/144/154
f 96/51/153 70/52/96 71/41/95 94/42/150
f 94/42/150 95/49/151 96/51/153
g default
v 1.260796 2.823797 -3.470563
v 1.267345 2.817248 -3.470563
v 1.276292 2.814851 -3.470563
v 1.276292 2.817248 -3.461617
v 1.276292 2.823797 -3.455068
v 1.276292 2.832744 -3.452671
v 1.267345 2.832744 -3.455068
v 1.260796 2.832744 -3.461617
v 1.258399 2.832744 -3.470563
v 3.046389 2.817248 -3.470563
v 3.052938 2.823797 -3.470563
v 3.055335 2.832744 -3.470563
v 3.052938 2.832744 -3.461617
v 3.046389 2.832744 -3.455068
v 3.037443 2.832744 -3.452671
v 3.037443 2.823797 -3.455068
v 3.037443 2.817248 -3.461617
v 3.037443 2.814851 -3.470563
v 1.267345 5.326091 -3.470563
v 1.260796 5.319542 -3.470563
v 1.258399 5.310596 -3.470563
v 1.260796 5.310596 -3.461617
v 1.267345 5.310596 -3.455068
v 1.276292 5.310596 -3.452671
v 1.276292 5.319542 -3.455068
v 1.276292 5.326091 -3.461617
v 1.276292 5.328488 -3.470563
v 3.052938 5.319542 -3.470563
v 3.046389 5.326091 -3.470563
v 3.037443 5.328488 -3.470563
v 3.037443 5.326091 -3.461617
v 3.037443 5.319542 -3.455068
v 3.037443 5.310596 -3.452671
v 3.046389 5.310596 -3.455068
v 3.052938 5.310596 -3.461617
v 3.055335 5.310596 -3.470563
v 1.267345 5.310596 -3.629216
v 1.260796 5.310596 -3.622667
v 1.258399 5.310596 -3.613720
v 1.260796 5.319542 -3.613720
v 1.267345 5.326091 -3.613720
v 1.276292 5.328488 -3.613720
v 1.276292 5.326091 -3.622667
v 1.276292 5.319542 -3.629216
v 1.276292 5.310596 -3.631613
v 3.052938 5.310596 -3.622667
v 3.046389 5.310596 -3.629216
v 3.037443 5.310596 -3.631613
v 3.037443 5.319542 -3.629216
v 3.037443 5.326091 -3.622667
v 3.037443 5.328488 -3.613720
v 3.046389 5.326091 -3.613720
v 3.052938 5.319542 -3.613720
v 3.055335 5.310596 -3.613720
v 1.267345 2.817248 -3.613720
v 1.260796 2.823797 -3.613720
v 1.258399 2.832744 -3.613720
v 1.260796 2.832744 -3.622667
v 1.267345 2.832744 -3.629216
v 1.276292 2.832744 -3.631613
v 1.276292 2.823797 -3.629216
v 1.276292 2.817248 -3.622667
v 1.276292 2.814851 -3.613720
v 3.052938 2.823797 -3.613720
v 3.046389 2.817248 -3.613720
v 3.037443 2.814851 -3.613720
v 3.037443 2.817248 -3.622667
v 3.037443 2.823797 -3.629216
v 3.037443 2.832744 -3.631613
v 3.046389 2.832744 -3.629216
v 3.052938 2.832744 -3.622667
v 3.055335 2.832744 -3.613720
v 1.262142 2.825013 -3.462832
v 1.268561 2.818594 -3.462832
v 1.268561 2.825013 -3.456414
v 3.045174 2.818594 -3.462832
v 3.051592 2.825013 -3.462832
v 3.045174 2.825013 -3.456414
v 1.268561 5.324746 -3.462832
v 1.262142 5.318327 -3.462832
v 1.268561 5.318327 -3.456414
v 3.051592 5.318327 -3.462832
v 3.045174 5.324746 -3.462832
v 3.045174 5.318327 -3.456414
v 1.268561 5.318327 -3.627870
v 1.262142 5.318327 -3.621451
v 1.268561 5.324746 -3.621451
v 3.051592 5.318327 -3.621451
v 3.045174 5.318327 -3.627870
v 3.045174 5.324746 -3.621451
v 1.268561 2.818594 -3.621451
v 1.262142 2.825013 -3.621451
v 1.268561 2.825013 -3.627870
v 3.051592 2.825013 -3.621451
v 3.045174 2.818594 -3.621451
v 3.045174 2.825013 -3.627870
vt 0.898293 0.540283
vt 0.898293 0.541661
vt 0.876247 0.541661
vt 0.876247 0.540283
vt 0.899671 0.541661
vt 0.899484 0.540471
vt 0.898293 0.923247
vt 0.876247 0.923247
vt 0.874869 0.541661
vt 0.875057 0.540471
vt 0.898293 0.539275
vt 0.876247 0.539275
vt 0.899671 0.923247
vt 0.899484 0.539482
vt 0.900472 0.540471
vt 0.900679 0.541661
vt 0.898293 0.924624
vt 0.876247 0.924624
vt 0.874869 0.923247
vt 0.873861 0.541661
vt 0.874068 0.540471
vt 0.875057 0.539482
vt 0.900679 0.923247
vt 0.899484 0.924437
vt 0.898293 0.925633
vt 0.876247 0.925633
vt 0.875057 0.924437
vt 0.873861 0.923247
vt 0.900472 0.924437
vt 0.899484 0.925426
vt 0.875057 0.925426
vt 0.874068 0.924437
vt 0.876247 0.541661
vt 0.876247 0.540283
vt 0.898293 0.540283
vt 0.898293 0.541661
vt 0.874869 0.541661
vt 0.875057 0.540470
vt 0.876247 0.539275
vt 0.898293 0.539275
vt 0.899671 0.541661
vt 0.899484 0.540470
vt 0.898293 0.923247
vt 0.876247 0.923247
vt 0.874869 0.923247
vt 0.873861 0.541661
vt 0.874068 0.540470
vt 0.875057 0.539482
vt 0.899484 0.539482
vt 0.899671 0.923247
vt 0.900472 0.540470
vt 0.900679 0.541661
vt 0.876247 0.924624
vt 0.898293 0.924624
vt 0.875057 0.924437
vt 0.873861 0.923247
vt 0.899484 0.924437
vt 0.900679 0.923247
vt 0.876247 0.925633
vt 0.898293 0.925633
vt 0.875057 0.925426
vt 0.874068 0.924437
vt 0.900472 0.924437
vt 0.899484 0.925426
vt 0.898283 0.867939
vt 0.898283 0.869316
vt 0.876257 0.869316
vt 0.876257 0.867939
vt 0.899660 0.867939
vt 0.899473 0.869128
vt 0.874881 0.867939
vt 0.875067 0.869128
vt 0.876257 0.596969
vt 0.898283 0.596969
vt 0.899660 0.596969
vt 0.900667 0.867939
vt 0.900460 0.869128
vt 0.874881 0.596969
vt 0.874080 0.869128
vt 0.873873 0.867939
vt 0.898283 0.595592
vt 0.876257 0.595592
vt 0.899473 0.595779
vt 0.900667 0.596969
vt 0.873873 0.596969
vt 0.875067 0.595779
vt 0.900460 0.595779
vt 0.874080 0.595779
vt 0.876257 0.869316
vt 0.876257 0.867939
vt 0.898283 0.867939
vt 0.898283 0.869316
vt 0.874881 0.867939
vt 0.875067 0.869129
vt 0.876257 0.596968
vt 0.898283 0.596968
vt 0.899659 0.867939
vt 0.899473 0.869129
vt 0.874881 0.596968
vt 0.874080 0.869129
vt 0.873873 0.867939
vt 0.876257 0.595592
vt 0.898283 0.595592
vt 0.899659 0.596968
vt 0.900667 0.867939
vt 0.900460 0.869129
vt 0.873873 0.596968
vt 0.875067 0.595779
vt 0.899473 0.595779
vt 0.900667 0.596968
vt 0.874080 0.595779
vt 0.900460 0.595779
vt 0.002660 0.278228
vt 0.002660 0.276875
vt 0.269081 0.276875
vt 0.269081 0.278228
vt 0.001307 0.278228
vt 0.001491 0.277059
vt 0.270434 0.278228
vt 0.270250 0.277059
vt 0.269081 0.653068
vt 0.002660 0.653068
vt 0.001307 0.653068
vt 0.270434 0.653068
vt 0.002660 0.654422
vt 0.269081 0.654422
vt 0.001491 0.654238
vt 0.270250 0.654238
vt 0.720667 0.506872
vt 0.720661 0.508225
vt 0.345825 0.506313
vt 0.345832 0.504959
vt 0.722014 0.508232
vt 0.721836 0.507062
vt 0.719301 0.774642
vt 0.344466 0.772730
vt 0.344472 0.506306
vt 0.344662 0.505137
vt 0.720654 0.774649
vt 0.719294 0.775995
vt 0.344459 0.774083
vt 0.343112 0.772723
vt 0.720465 0.775818
vt 0.343291 0.773893
vn -0.001334 -0.999875 0.015738
vn -0.257676 -0.966166 0.011226
vn -0.257677 -0.966166 -0.011226
vn -0.001334 -0.999875 -0.015738
vn -0.707064 -0.707051 0.011803
vn -0.866064 -0.499790 0.011923
vn -0.866064 -0.499790 -0.011923
vn -0.707063 -0.707052 -0.011803
vn -0.999876 -0.000950 0.015745
vn -0.999876 -0.000950 -0.015745
vn -0.001353 -0.000963 0.999999
vn -0.000954 -0.258716 0.965953
vn 0.000954 -0.258716 0.965953
vn 0.001353 -0.000963 0.999999
vn -0.001006 -0.707100 0.707113
vn -0.001006 -0.707100 0.707113
vn 0.001006 -0.707100 0.707113
vn 0.001006 -0.707100 0.707113
vn -0.000954 -0.965955 0.258709
vn 0.001334 -0.999875 0.015738
vn 0.000954 -0.965955 0.258709
vn -0.866031 -0.000722 0.499989
vn -0.866031 0.000722 0.499989
vn -0.999876 0.000950 0.015745
vn -0.707112 -0.000716 0.707101
vn -0.707112 0.000716 0.707101
vn -0.258742 -0.000679 0.965946
vn -0.001353 0.000963 0.999999
vn -0.258742 0.000679 0.965946
vn 0.999876 -0.000950 0.015744
vn 0.966163 -0.257689 0.011226
vn 0.966163 -0.257689 -0.011226
vn 0.999876 -0.000950 -0.015744
vn 0.707058 -0.707058 0.011804
vn 0.707058 -0.707058 0.011804
vn 0.707058 -0.707058 -0.011804
vn 0.707058 -0.707058 -0.011804
vn 0.257679 -0.966165 0.011226
vn 0.001334 -0.999875 -0.015738
vn 0.257679 -0.966165 -0.011226
vn 0.258742 -0.000679 0.965946
vn 0.258742 0.000679 0.965946
vn 0.001353 0.000963 0.999999
vn 0.707106 -0.000716 0.707107
vn 0.707106 -0.000716 0.707107
vn 0.707106 0.000716 0.707107
vn 0.707106 0.000716 0.707107
vn 0.965945 -0.000679 0.258746
vn 0.999876 0.000950 0.015744
vn 0.965945 0.000679 0.258746
vn -0.866064 0.499790 0.011924
vn -0.866065 0.499790 -0.011924
vn -0.999876 0.000950 -0.015745
vn -0.707076 0.707039 0.011805
vn -0.707076 0.707039 -0.011805
vn -0.257676 0.966166 0.011226
vn -0.001334 0.999875 0.015736
vn -0.001334 0.999875 -0.015736
vn -0.257677 0.966166 -0.011226
vn -0.000954 0.965962 0.258682
vn 0.000954 0.965962 0.258682
vn 0.001334 0.999875 0.015736
vn -0.001006 0.707085 0.707128
vn -0.001015 0.499986 0.866033
vn 0.001015 0.499986 0.866033
vn 0.001006 0.707085 0.707128
vn 0.257679 0.966165 0.011226
vn 0.257679 0.966165 -0.011226
vn 0.001334 0.999875 -0.015736
vn 0.707070 0.707045 0.011805
vn 0.866062 0.499795 0.011924
vn 0.866062 0.499794 -0.011925
vn 0.707070 0.707045 -0.011805
vn 0.999876 0.000950 -0.015744
vn -0.866031 0.000722 -0.499989
vn -0.866031 -0.000722 -0.499989
vn -0.707112 0.000716 -0.707101
vn -0.707112 -0.000716 -0.707101
vn -0.258742 0.000679 -0.965946
vn -0.001353 0.000963 -0.999999
vn -0.001353 -0.000963 -0.999999
vn -0.258742 -0.000679 -0.965946
vn -0.001015 0.499986 -0.866033
vn 0.001015 0.499986 -0.866033
vn 0.001353 0.000963 -0.999999
vn -0.001006 0.707085 -0.707128
vn 0.001006 0.707085 -0.707128
vn -0.000954 0.965962 -0.258682
vn 0.000954 0.965962 -0.258682
vn 0.258742 0.000679 -0.965946
vn 0.258742 -0.000679 -0.965946
vn 0.001353 -0.000963 -0.999999
vn 0.707106 0.000716 -0.707107
vn 0.707106 0.000716 -0.707107
vn 0.707106 -0.000716 -0.707107
vn 0.707106 -0.000716 -0.707107
vn 0.965945 0.000679 -0.258746
vn 0.965945 -0.000679 -0.258746
vn -0.000954 -0.965955 -0.258709
vn 0.000954 -0.965955 -0.258709
vn -0.001006 -0.707100 -0.707113
vn -0.001006 -0.707100 -0.707113
vn 0.001006 -0.707100 -0.707113
vn 0.001006 -0.707100 -0.707113
vn -0.000954 -0.258716 -0.965953
vn 0.000954 -0.258716 -0.965953
vn -0.946101 -0.229018 0.229005
vn -0.707847 -0.499478 0.499474
vn -0.499490 -0.707828 0.499490
vn -0.229012 -0.946102 0.229009
vn -0.499499 -0.499474 0.707832
vn -0.229009 -0.229015 0.946101
vn 0.229014 -0.946100 0.229014
vn 0.499477 -0.707832 0.499495
vn 0.707832 -0.499492 0.499482
vn 0.946100 -0.229016 0.229013
vn 0.499498 -0.499480 0.707828
vn 0.229017 -0.229017 0.946099
vn -0.229013 0.946101 0.229013
vn -0.499489 0.707825 0.499495
vn -0.707840 0.499479 0.499483
vn -0.946098 0.229024 0.229011
vn -0.499496 0.499481 0.707830
vn -0.228997 0.229023 0.946102
vn 0.946094 0.229029 0.229026
vn 0.707835 0.499491 0.499479
vn 0.499487 0.707830 0.499489
vn 0.229015 0.946101 0.229009
vn 0.499495 0.499486 0.707826
vn 0.229002 0.229021 0.946101
vn -0.229020 0.229020 -0.946097
vn -0.499494 0.499481 -0.707831
vn -0.707838 0.499480 -0.499485
vn -0.946102 0.229018 -0.229002
vn -0.499494 0.707822 -0.499493
vn -0.229024 0.946100 -0.229005
vn 0.946098 0.229016 -0.229022
vn 0.707833 0.499489 -0.499483
vn 0.499495 0.499484 -0.707828
vn 0.229022 0.229022 -0.946096
vn 0.499493 0.707827 -0.499488
vn 0.229026 0.946097 -0.229013
vn -0.229025 -0.946098 -0.229012
vn -0.499498 -0.707825 -0.499486
vn -0.707839 -0.499485 -0.499478
vn -0.946104 -0.229010 -0.229000
vn -0.499506 -0.499472 -0.707829
vn -0.228993 -0.229018 -0.946104
vn 0.946101 -0.229018 -0.229006
vn 0.707830 -0.499493 -0.499483
vn 0.499481 -0.707830 -0.499495
vn 0.229027 -0.946098 -0.229011
vn 0.499494 -0.499483 -0.707830
vn 0.229003 -0.229015 -0.946102
s 1
g Painting3 Paintings
f 99/209/155 98/210/156 151/211/157 159/212/158
s 2
f 98/155/159 97/145/160 152/148/161 151/156/162
f 97/145/160 105/146/163 153/147/164 152/148/161
f 102/257/165 101/258/166 112/259/167 111/260/168
f 101/220/169 100/213/170 113/219/171 112/228/172
s 1
f 100/213/173 99/209/155 114/218/174 113/219/175
s 2
f 105/146/163 104/149/176 118/157/177 117/151/178
f 104/149/176 103/160/179 119/167/180 118/157/177
f 103/261/181 102/257/165 120/266/182 119/267/183
f 108/177/184 107/178/185 160/179/186 168/180/187
f 107/178/188 106/183/189 161/184/190 160/179/191
s 1
f 106/225/192 114/218/174 162/217/193 161/226/194
s 2
f 111/260/168 110/263/195 130/268/196 129/265/197
f 110/190/198 109/181/199 131/189/200 130/200/201
f 109/181/202 108/177/184 132/188/203 131/189/204
f 117/151/178 116/161/205 136/162/206 135/152/207
f 116/161/205 115/169/208 137/170/209 136/162/206
s 8
f 115/233/210 123/234/211 138/235/212 137/236/213
f 123/234/211 122/237/214 127/243/215 126/239/216
s 2
f 122/237/217 121/245/218 128/251/219 127/243/220
f 121/269/218 120/266/182 129/265/197 128/270/219
s 8
f 126/239/216 125/246/221 148/247/222 147/240/223
s 2
f 125/203/224 124/197/225 149/198/226 148/204/227
f 124/197/225 132/188/203 150/187/228 149/198/226
f 135/152/207 134/163/229 154/153/230 153/147/164
f 134/163/229 133/172/231 155/164/232 154/153/230
f 133/273/233 141/274/234 156/275/235 155/276/236
f 141/274/234 140/277/237 145/283/238 144/279/239
f 140/249/237 139/241/240 146/248/241 145/254/238
s 8
f 139/241/242 138/235/212 147/240/223 146/248/243
s 2
f 144/279/239 143/284/244 166/285/245 165/280/246
f 143/202/247 142/194/248 167/185/249 166/196/250
f 142/194/251 150/187/228 168/180/187 167/185/252
s 1
f 159/212/158 158/215/253 163/222/254 162/217/193
s 2
f 158/215/255 157/224/256 164/229/257 163/222/258
f 157/281/259 156/275/235 165/280/246 164/286/260
f 102/257/165 111/260/168 129/265/197 120/266/182
s 8
f 123/234/211 126/239/216 147/240/223 138/235/212
s 2
f 141/274/234 144/279/239 165/280/246 156/275/235
s 1
f 159/212/158 162/217/193 114/218/174 99/209/155
s 2
f 108/177/184 168/180/187 150/187/228 132/188/203
f 153/147/164 105/146/163 117/151/178 135/152/207
f 104/149/176 105/146/163 97/145/160 169/150/261
f 169/150/262 97/145/160 98/155/159 170/158/263
s 1
f 98/210/156 99/209/155 100/213/173 170/214/264
s 2
f 170/214/263 100/213/170 101/220/169 171/221/265
f 101/258/166 102/257/165 103/261/181 171/262/266
f 171/159/265 103/160/179 104/149/176 169/150/262
f 169/150/262 170/158/263 171/159/265
s 1
f 113/219/175 114/218/174 106/225/192 172/227/267
s 2
f 172/192/268 106/183/189 107/178/188 173/182/269
f 107/178/185 108/177/184 109/181/202 173/182/270
f 173/182/269 109/181/199 110/190/198 174/191/271
f 110/263/195 111/260/168 112/259/167 174/264/272
f 174/231/271 112/228/172 113/219/171 172/227/268
f 172/192/268 173/182/269 174/191/271
s 8
f 122/237/214 123/234/211 115/233/210 175/238/273
s 2
f 175/174/274 115/169/208 116/161/205 176/168/275
f 116/161/205 117/151/178 118/157/177 176/168/276
f 176/168/275 118/157/177 119/167/180 177/173/277
f 119/267/183 120/266/182 121/269/218 177/271/278
f 177/244/277 121/245/218 122/237/217 175/238/274
f 175/174/274 176/168/275 177/173/277
f 131/189/204 132/188/203 124/197/225 178/199/279
f 178/199/280 124/197/225 125/203/224 179/205/281
s 8
f 125/246/221 126/239/216 127/243/215 179/252/282
s 2
f 179/252/281 127/243/220 128/251/219 180/255/283
f 128/270/219 129/265/197 130/268/196 180/272/284
f 180/206/283 130/200/201 131/189/200 178/199/280
f 178/199/280 179/205/281 180/206/283
f 140/277/237 141/274/234 133/273/233 181/278/285
f 181/176/286 133/172/231 134/163/229 182/171/287
f 134/163/229 135/152/207 136/162/206 182/171/288
f 182/171/287 136/162/206 137/170/209 183/175/289
s 8
f 137/236/213 138/235/212 139/241/242 183/242/290
s 2
f 183/242/289 139/241/240 140/249/237 181/250/286
f 181/176/286 182/171/287 183/175/289
f 149/198/226 150/187/228 142/194/251 184/201/291
f 184/201/292 142/194/248 143/202/247 185/207/293
f 143/284/244 144/279/239 145/283/238 185/287/294
f 185/256/293 145/254/238 146/248/241 186/253/295
s 8
f 146/248/243 147/240/223 148/247/222 186/253/296
s 2
f 186/208/295 148/204/227 149/198/226 184/201/292
f 184/201/292 185/207/293 186/208/295
s 1
f 158/215/253 159/212/158 151/211/157 187/216/297
s 2
f 187/166/298 151/156/162 152/148/161 188/154/299
f 152/148/161 153/147/164 154/153/230 188/154/300
f 188/154/299 154/153/230 155/164/232 189/165/301
f 155/276/236 156/275/235 157/281/259 189/282/302
f 189/223/301 157/224/256 158/215/255 187/216/298
f 187/166/298 188/154/299 189/165/301
f 167/185/252 168/180/187 160/179/186 190/186/303
f 190/186/304 160/179/191 161/184/190 191/193/305
s 1
f 161/226/194 162/217/193 163/222/254 191/230/306
s 2
f 191/230/305 163/222/258 164/229/257 192/232/307
f 164/286/260 165/280/246 166/285/245 192/288/308
f 192/195/307 166/196/250 167/185/249 190/186/304
f 190/186/304 191/193/305 192/195/307
g default
v -0.996793 2.399597 -0.360432
v -0.989414 2.392699 -0.357739
v -0.979334 2.390179 -0.356740
v -0.979603 2.397043 -0.348484
v -0.979904 2.406791 -0.344447
v -0.980164 2.417094 -0.345602
v -0.989832 2.416159 -0.348148
v -0.996908 2.413205 -0.354919
v -0.999494 2.409025 -0.364098
v 1.962467 2.392699 -0.357739
v 1.969846 2.399597 -0.360432
v 1.972547 2.409025 -0.364098
v 1.969846 2.413460 -0.355006
v 1.962466 2.416697 -0.348346
v 1.952386 2.417868 -0.345901
v 1.952389 2.407176 -0.344599
v 1.952389 2.397146 -0.348525
v 1.952386 2.390179 -0.356740
v -0.989414 4.125132 -1.026449
v -0.996793 4.118208 -1.023807
v -0.999494 4.108756 -1.020186
v -0.996793 4.113239 -1.011109
v -0.989414 4.116529 -1.004469
v -0.979334 4.117745 -1.002046
v -0.979332 4.125800 -1.008102
v -0.979332 4.129473 -1.017487
v -0.979334 4.127671 -1.027403
v 1.969846 4.118208 -1.023807
v 1.962467 4.125132 -1.026449
v 1.952386 4.127671 -1.027403
v 1.952071 4.129354 -1.017440
v 1.951721 4.125358 -1.007927
v 1.951439 4.116861 -1.001704
v 1.961995 4.115921 -1.004248
v 1.969722 4.112955 -1.011013
v 1.972547 4.108756 -1.020186
v -0.989414 4.029746 -1.181302
v -0.996793 4.032983 -1.174641
v -0.999494 4.037418 -1.165549
v -0.996793 4.046846 -1.169214
v -0.989414 4.053744 -1.171907
v -0.979334 4.056262 -1.172907
v -0.979334 4.049297 -1.181122
v -0.979334 4.039266 -1.185048
v -0.979334 4.028574 -1.183746
v 1.969846 4.032983 -1.174641
v 1.962467 4.029746 -1.181302
v 1.952386 4.028574 -1.183746
v 1.952675 4.039218 -1.185148
v 1.952976 4.049118 -1.181495
v 1.953217 4.055897 -1.173652
v 1.962885 4.053482 -1.172418
v 1.969960 4.046718 -1.169452
v 1.972547 4.037418 -1.165549
v -0.989414 2.321310 -0.503198
v -0.996793 2.328233 -0.505840
v -0.999494 2.337686 -0.509462
v -0.996793 2.333203 -0.518538
v -0.989414 2.329913 -0.525177
v -0.979334 2.328697 -0.527602
v -0.979334 2.320643 -0.521544
v -0.979334 2.316969 -0.512159
v -0.979334 2.318771 -0.502244
v 1.969846 2.328233 -0.505840
v 1.962467 2.321310 -0.503198
v 1.952386 2.318771 -0.502244
v 1.952090 2.317087 -0.512206
v 1.951740 2.321083 -0.521720
v 1.951439 2.329580 -0.527943
v 1.961995 2.330521 -0.525399
v 1.969722 2.333488 -0.518634
v 1.972547 2.337686 -0.509462
v -0.995367 2.404557 -0.352996
v -0.988196 2.397878 -0.350318
v -0.988372 2.407508 -0.346376
v 1.961099 2.397961 -0.350346
v 1.968330 2.404699 -0.353046
v 1.961098 2.407814 -0.346489
v -0.988044 4.127469 -1.018159
v -0.995277 4.120741 -1.015495
v -0.988044 4.123872 -1.008970
v 1.968229 4.120583 -1.015440
v 1.960923 4.127373 -1.018128
v 1.960718 4.123524 -1.008842
v -0.988045 4.038629 -1.183157
v -0.995277 4.041743 -1.176601
v -0.988045 4.048482 -1.179301
v 1.968423 4.041672 -1.176734
v 1.961260 4.038588 -1.183234
v 1.961434 4.048333 -1.179592
v -0.988045 2.318973 -0.511488
v -0.995277 2.325701 -0.514152
v -0.988045 2.322570 -0.520676
v 1.968233 2.325860 -0.514207
v 1.960932 2.319068 -0.511520
v 1.960729 2.322917 -0.520805
vt 0.949553 0.605585
vt 0.948988 0.607037
vt 0.926597 0.596048
vt 0.927154 0.594592
vt 0.950402 0.607681
vt 0.950698 0.606349
vt 0.847926 0.868859
vt 0.825534 0.857871
vt 0.925198 0.595358
vt 0.925874 0.594202
vt 0.949968 0.604522
vt 0.927561 0.593526
vt 0.849324 0.869550
vt 0.951111 0.605320
vt 0.951718 0.606804
vt 0.951445 0.608136
vt 0.847368 0.870315
vt 0.824970 0.859323
vt 0.824134 0.857188
vt 0.924176 0.594851
vt 0.924869 0.593720
vt 0.926284 0.593166
vt 0.850347 0.870057
vt 0.848649 0.870705
vt 0.846961 0.871382
vt 0.824555 0.860386
vt 0.823832 0.858537
vt 0.823108 0.856689
vt 0.849653 0.871188
vt 0.848238 0.871742
vt 0.823416 0.859575
vt 0.822822 0.858057
vt 0.825478 0.606918
vt 0.824913 0.605464
vt 0.847333 0.594461
vt 0.847891 0.595918
vt 0.824077 0.607602
vt 0.823774 0.606251
vt 0.824498 0.604401
vt 0.846926 0.593393
vt 0.849306 0.595271
vt 0.848623 0.594095
vt 0.949050 0.857990
vt 0.926637 0.868989
vt 0.925223 0.869637
vt 0.823050 0.608101
vt 0.822764 0.606731
vt 0.823358 0.605212
vt 0.848209 0.593048
vt 0.950452 0.857306
vt 0.849640 0.593641
vt 0.850349 0.594814
vt 0.927195 0.870447
vt 0.949651 0.859424
vt 0.925905 0.870813
vt 0.924180 0.870094
vt 0.950774 0.858646
vt 0.951478 0.856807
vt 0.927603 0.871514
vt 0.950109 0.860467
vt 0.926320 0.871860
vt 0.924888 0.871266
vt 0.951776 0.858171
vt 0.951215 0.859673
vt 0.900397 0.968629
vt 0.900236 0.970253
vt 0.876800 0.970253
vt 0.876954 0.968629
vt 0.901727 0.968672
vt 0.901432 0.970057
vt 0.875356 0.968629
vt 0.875464 0.970032
vt 0.876954 0.496279
vt 0.900397 0.496279
vt 0.901720 0.496278
vt 0.875349 0.496326
vt 0.873984 0.970032
vt 0.873844 0.968629
vt 0.900236 0.494655
vt 0.876800 0.494655
vt 0.901427 0.494875
vt 0.873816 0.496383
vt 0.875459 0.494902
vt 0.873259 0.970253
vt 0.872868 0.968629
vt 0.872813 0.496431
vt 0.873963 0.494935
vt 0.873223 0.494730
vt 0.876772 0.970311
vt 0.876926 0.968687
vt 0.900371 0.968687
vt 0.900210 0.970311
vt 0.875328 0.968687
vt 0.875436 0.970091
vt 0.876926 0.496288
vt 0.900491 0.496154
vt 0.901695 0.968687
vt 0.901402 0.970091
vt 0.875320 0.496339
vt 0.873956 0.970091
vt 0.873816 0.968687
vt 0.876772 0.494664
vt 0.900293 0.494596
vt 0.901755 0.496193
vt 0.873788 0.496395
vt 0.875431 0.494912
vt 0.873230 0.970311
vt 0.872840 0.968687
vt 0.901449 0.494830
vt 0.872785 0.496440
vt 0.873935 0.494945
vt 0.873195 0.494739
vt 0.465648 0.271093
vt 0.465613 0.272706
vt 0.006518 0.274206
vt 0.006513 0.272532
vt 0.467162 0.271234
vt 0.466939 0.272589
vt 0.465571 0.274232
vt 0.006523 0.275776
vt 0.004935 0.272720
vt 0.005154 0.274111
vt 0.005757 0.006528
vt 0.464613 0.004830
vt 0.466192 0.005015
vt 0.466916 0.274097
vt 0.005159 0.275653
vt 0.004105 0.006681
vt 0.302161 0.507671
vt 0.303738 0.507862
vt 0.302380 0.773995
vt 0.300803 0.773797
vt 0.303747 0.506188
vt 0.302382 0.506281
vt 0.762729 0.510204
vt 0.761224 0.776198
vt 0.762783 0.508538
vt 0.302390 0.504738
vt 0.303755 0.504618
vt 0.764309 0.510028
vt 0.762877 0.776059
vt 0.762838 0.506988
vt 0.764127 0.508643
vt 0.764162 0.507118
vn -0.000911 -0.890938 0.454124
vn -0.504588 -0.770376 0.389759
vn -0.494125 -0.785818 0.371927
vn -0.000891 -0.904809 0.425816
vn -0.706614 -0.630177 0.321829
vn -0.707508 -0.639187 0.301452
vn -0.965945 -0.227957 0.122417
vn -0.999898 0.003907 0.013772
vn -0.999849 -0.007732 -0.015576
vn -0.966451 -0.235777 0.101896
vn -0.000917 0.358780 0.933422
vn -0.000622 -0.129558 0.991572
vn 0.000744 -0.133759 0.991014
vn 0.000931 0.358760 0.933429
vn -0.000637 -0.584639 0.811293
vn 0.000719 -0.588002 0.808860
vn 0.000915 -0.891037 0.453929
vn -0.874021 0.174016 0.453658
vn -0.864082 0.182372 0.469150
vn -0.999855 0.007601 0.015232
vn -0.714437 0.251071 0.653103
vn -0.714447 0.253177 0.652278
vn -0.264188 0.346452 0.900098
vn -0.000904 0.361498 0.932373
vn -0.264167 0.348363 0.899366
vn 0.999892 0.004051 0.014150
vn 0.965942 -0.227664 0.122983
vn 0.966481 -0.236007 0.101072
vn 0.999847 -0.007778 -0.015682
vn 0.706565 -0.629713 0.322843
vn 0.706641 -0.630372 0.321388
vn 0.707613 -0.640399 0.298619
vn 0.707550 -0.639614 0.300443
vn 0.257419 -0.862488 0.435718
vn 0.000895 -0.904689 0.426073
vn 0.257891 -0.872479 0.415058
vn 0.497271 0.311555 0.809725
vn 0.489447 0.315183 0.813082
vn 0.000920 0.361520 0.932364
vn 0.698839 0.256608 0.667665
vn 0.698834 0.258658 0.666878
vn 0.964400 0.094387 0.247031
vn 0.999847 0.007751 0.015698
vn 0.964429 0.096261 0.246194
vn -0.860565 0.462439 -0.213492
vn -0.871002 0.435799 -0.226791
vn -0.999896 -0.003933 -0.013849
vn -0.707572 0.639904 -0.299775
vn -0.706641 0.630372 -0.321386
vn -0.257951 0.872146 -0.415719
vn -0.000889 0.904792 -0.425853
vn -0.000916 0.890908 -0.454183
vn -0.257424 0.862486 -0.435719
vn -0.000634 0.984964 -0.172760
vn 0.000651 0.984972 -0.172711
vn 0.000893 0.904645 -0.426165
vn -0.000623 0.926611 0.376021
vn -0.000623 0.926611 0.376021
vn 0.000741 0.926580 0.376097
vn 0.000801 0.926578 0.376101
vn -0.000578 0.595804 0.803130
vn 0.000748 0.595761 0.803162
vn 0.263142 0.871680 -0.413437
vn 0.263429 0.861632 -0.433816
vn 0.000908 0.890979 -0.454043
vn 0.714569 0.634598 -0.294408
vn 0.864788 0.456723 -0.208677
vn 0.873618 0.431919 -0.224137
vn 0.714469 0.623553 -0.317357
vn 0.999892 -0.004059 -0.014142
vn -0.965933 -0.092320 -0.241766
vn -0.965983 -0.094206 -0.240838
vn -0.707070 -0.253558 -0.660121
vn -0.707076 -0.253702 -0.660060
vn -0.707165 -0.255722 -0.659185
vn -0.707157 -0.255560 -0.659255
vn -0.258685 -0.346870 -0.901534
vn -0.000929 -0.358787 -0.933419
vn -0.000903 -0.361499 -0.932372
vn -0.258734 -0.348793 -0.900778
vn -0.000719 0.117334 -0.993092
vn 0.000638 0.121611 -0.992578
vn 0.000931 -0.358765 -0.933428
vn -0.000744 0.574535 -0.818480
vn 0.000623 0.577867 -0.816131
vn 0.497284 -0.311629 -0.809689
vn 0.489451 -0.315180 -0.813080
vn 0.000920 -0.361522 -0.932363
vn 0.698862 -0.256701 -0.667605
vn 0.698853 -0.258650 -0.666861
vn 0.964399 -0.094445 -0.247014
vn 0.964427 -0.096261 -0.246198
vn -0.000634 -0.984949 0.172842
vn 0.000652 -0.984958 0.172793
vn -0.000623 -0.926610 -0.376023
vn -0.000623 -0.926610 -0.376023
vn 0.000741 -0.926579 -0.376099
vn 0.000800 -0.926578 -0.376103
vn -0.000579 -0.595835 -0.803107
vn 0.000750 -0.595791 -0.803139
vn -0.809700 -0.230345 0.539747
vn -0.416653 -0.577931 0.701709
vn -0.424472 -0.090210 0.900936
vn 0.410212 -0.563877 0.716777
vn 0.695002 -0.262066 0.669547
vn 0.942304 -0.122009 0.311733
vn 0.410219 -0.072522 0.909099
vn -0.233153 0.951906 -0.198785
vn -0.508497 0.844713 0.167004
vn -0.722326 0.644005 0.251998
vn -0.950289 0.289965 0.113450
vn -0.508503 0.733646 0.450764
vn -0.233109 0.563978 0.792205
vn 0.947057 0.293685 0.129743
vn 0.711292 0.644510 0.280482
vn 0.498505 0.844418 0.196091
vn 0.230777 0.955897 -0.181667
vn 0.492808 0.727393 0.477536
vn 0.220592 0.553286 0.803252
vn -0.410164 0.072585 -0.909119
vn -0.694985 0.262096 -0.669553
vn -0.942289 0.122040 -0.311767
vn -0.410190 0.563879 -0.716788
vn 0.809970 0.197153 -0.552340
vn 0.417016 0.051713 -0.907427
vn 0.424821 0.545498 -0.722467
vn -0.233111 -0.951892 0.198899
vn -0.508493 -0.844715 -0.167006
vn -0.722328 -0.643987 -0.252038
vn -0.950292 -0.289948 -0.113473
vn -0.508487 -0.733629 -0.450810
vn -0.233124 -0.563982 -0.792198
vn 0.947132 -0.293464 -0.129689
vn 0.711614 -0.644199 -0.280380
vn 0.498887 -0.844258 -0.195807
vn 0.230851 -0.955791 0.182132
vn 0.493239 -0.727006 -0.477679
vn 0.220687 -0.552997 -0.803425
s 1
g Painting4 Eisel_and_Painting
usemtl lambert9SG
f 195/353/309 194/354/310 247/355/311 255/356/312
f 194/299/310 193/289/313 248/292/314 247/300/311
f 193/289/315 201/290/316 249/291/317 248/292/318
f 198/401/319 197/402/320 208/403/321 207/404/322
f 197/402/320 196/407/323 209/408/324 208/403/321
f 196/357/323 195/353/309 210/362/325 209/363/324
f 201/290/316 200/293/326 214/301/327 213/295/328
f 200/293/326 199/304/329 215/311/330 214/301/327
f 199/405/331 198/401/319 216/412/332 215/413/333
f 204/321/334 203/322/335 256/323/336 264/324/337
f 203/322/338 202/327/339 257/328/340 256/323/341
f 202/367/342 210/362/325 258/361/343 257/368/344
f 207/404/322 206/409/345 226/416/346 225/411/347
f 206/334/345 205/325/348 227/333/349 226/344/346
f 205/325/350 204/321/334 228/332/351 227/333/352
f 213/295/328 212/305/353 232/306/354 231/296/355
f 212/305/353 211/313/356 233/314/357 232/306/354
f 211/377/358 219/378/359 234/379/360 233/380/361
f 219/378/359 218/381/362 223/387/363 222/383/364
f 218/381/365 217/389/366 224/393/367 223/387/368
f 217/389/369 216/396/332 225/398/347 224/393/370
f 222/383/364 221/390/371 244/391/372 243/384/373
f 221/347/374 220/341/375 245/342/376 244/348/377
f 220/341/375 228/332/351 246/331/378 245/342/376
f 231/296/355 230/307/379 250/297/380 249/291/317
f 230/307/381 229/316/382 251/308/383 250/297/384
f 229/417/385 237/418/386 252/419/387 251/420/388
f 237/418/386 236/421/389 241/425/390 240/423/391
f 236/421/389 235/427/392 242/430/393 241/425/390
f 235/385/392 234/379/360 243/384/373 242/392/393
f 240/423/391 239/428/394 262/429/395 261/424/396
f 239/346/394 238/338/397 263/329/398 262/340/395
f 238/338/399 246/331/378 264/324/337 263/329/400
f 255/356/312 254/359/401 259/364/402 258/361/343
f 254/359/403 253/366/404 260/370/405 259/364/406
f 253/366/407 252/373/387 261/374/396 260/370/408
f 198/401/319 207/404/322 225/411/347 216/412/332
f 219/378/359 222/383/364 243/384/373 234/379/360
f 237/418/386 240/423/391 261/424/396 252/419/387
f 255/356/312 258/361/343 210/362/325 195/353/309
f 204/321/334 264/324/337 246/331/378 228/332/351
f 249/291/317 201/290/316 213/295/328 231/296/355
f 200/293/326 201/290/316 193/289/315 265/294/409
f 265/294/409 193/289/313 194/299/310 266/302/410
f 194/354/310 195/353/309 196/357/323 266/358/410
f 266/414/410 196/407/323 197/402/320 267/406/411
f 197/402/320 198/401/319 199/405/331 267/406/411
f 267/303/411 199/304/329 200/293/326 265/294/409
f 265/294/409 266/302/410 267/303/411
f 209/363/324 210/362/325 202/367/342 268/369/412
f 268/336/412 202/327/339 203/322/338 269/326/413
f 203/322/335 204/321/334 205/325/350 269/326/414
f 269/326/413 205/325/348 206/334/345 270/335/415
f 206/409/345 207/404/322 208/403/321 270/410/415
f 270/410/415 208/403/321 209/408/324 268/415/412
f 268/336/412 269/326/413 270/335/415
f 218/381/362 219/378/359 211/377/358 271/382/416
f 271/318/417 211/313/356 212/305/353 272/312/418
f 212/305/353 213/295/328 214/301/327 272/312/419
f 272/312/418 214/301/327 215/311/330 273/317/420
f 215/395/333 216/396/332 217/389/369 273/388/421
f 273/388/420 217/389/366 218/381/365 271/382/417
f 271/318/417 272/312/418 273/317/420
f 227/333/352 228/332/351 220/341/375 274/343/422
f 274/343/423 220/341/375 221/347/374 275/349/424
f 221/390/371 222/383/364 223/387/363 275/394/425
f 275/394/424 223/387/368 224/393/367 276/399/426
f 224/393/370 225/398/347 226/400/346 276/399/427
f 276/350/426 226/344/346 227/333/349 274/343/423
f 274/343/423 275/349/424 276/350/426
f 236/421/389 237/418/386 229/417/385 277/422/428
f 277/320/428 229/316/382 230/307/381 278/315/429
f 230/307/379 231/296/355 232/306/354 278/315/430
f 278/315/429 232/306/354 233/314/357 279/319/431
f 233/380/361 234/379/360 235/385/392 279/386/431
f 279/426/431 235/427/392 236/421/389 277/422/428
f 277/320/428 278/315/429 279/319/431
f 245/342/376 246/331/378 238/338/399 280/345/432
f 280/345/432 238/338/397 239/346/394 281/351/433
f 239/428/394 240/423/391 241/425/390 281/431/433
f 281/431/433 241/425/390 242/430/393 282/432/434
f 242/392/393 243/384/373 244/391/372 282/397/434
f 282/352/434 244/348/377 245/342/376 280/345/432
f 280/345/432 281/351/433 282/352/434
f 254/359/401 255/356/312 247/355/311 283/360/435
f 283/310/436 247/300/311 248/292/314 284/298/437
f 248/292/318 249/291/317 250/297/380 284/298/438
f 284/298/437 250/297/384 251/308/383 285/309/439
f 251/372/388 252/373/387 253/366/407 285/365/440
f 285/365/439 253/366/404 254/359/403 283/360/436
f 283/310/436 284/298/437 285/309/439
f 263/329/400 264/324/337 256/323/336 286/330/441
f 286/330/442 256/323/341 257/328/340 287/337/443
f 257/368/344 258/361/343 259/364/402 287/371/444
f 287/371/443 259/364/406 260/370/405 288/375/445
f 260/370/408 261/374/396 262/376/395 288/375/446
f 288/339/445 262/340/395 263/329/398 286/330/442
f 286/330/442 287/337/443 288/339/445
g default
v -0.990993 0.786157 -2.916829
v -0.984444 0.779690 -2.915796
v -0.975498 0.777323 -2.915418
v -0.975498 0.781101 -2.906962
v -0.975498 0.788601 -2.901527
v -0.975498 0.797813 -2.900571
v -0.984444 0.797435 -2.902938
v -0.990993 0.796402 -2.909405
v -0.993390 0.794991 -2.918240
v 1.510759 0.779690 -2.915796
v 1.517308 0.786157 -2.916829
v 1.519706 0.794991 -2.918240
v 1.517308 0.796402 -2.909405
v 1.510759 0.797435 -2.902938
v 1.501813 0.797813 -2.900571
v 1.501813 0.788601 -2.901527
v 1.501813 0.781101 -2.906962
v 1.501813 0.777323 -2.915418
v -0.984444 2.226975 -3.146926
v -0.990993 2.220508 -3.145893
v -0.993390 2.211673 -3.144482
v -0.990993 2.213084 -3.135648
v -0.984444 2.214117 -3.129181
v -0.975498 2.214495 -3.126814
v -0.975498 2.222951 -3.130592
v -0.975498 2.228386 -3.138092
v -0.975498 2.229342 -3.147304
v 1.517308 2.220508 -3.145893
v 1.510759 2.226975 -3.146926
v 1.501813 2.229342 -3.147304
v 1.501813 2.228386 -3.138092
v 1.501813 2.222951 -3.130592
v 1.501813 2.214495 -3.126814
v 1.510759 2.214117 -3.129181
v 1.517308 2.213084 -3.135648
v 1.519706 2.211673 -3.144482
v -0.984444 2.186654 -3.301149
v -0.990993 2.187687 -3.294682
v -0.993390 2.189098 -3.285848
v -0.990993 2.197932 -3.287258
v -0.984444 2.204399 -3.288291
v -0.975498 2.206766 -3.288669
v -0.975498 2.202988 -3.297126
v -0.975498 2.195488 -3.302560
v -0.975498 2.186276 -3.303516
v 1.517308 2.187687 -3.294682
v 1.510759 2.186654 -3.301149
v 1.501813 2.186276 -3.303516
v 1.501813 2.195488 -3.302560
v 1.501813 2.202988 -3.297126
v 1.501813 2.206766 -3.288669
v 1.510759 2.204399 -3.288291
v 1.517308 2.197932 -3.287258
v 1.519706 2.189098 -3.285848
v -0.984444 0.757114 -3.057162
v -0.990993 0.763581 -3.058194
v -0.993390 0.772415 -3.059605
v -0.990993 0.771005 -3.068439
v -0.984444 0.769972 -3.074907
v -0.975498 0.769594 -3.077274
v -0.975498 0.761138 -3.073496
v -0.975498 0.755703 -3.065996
v -0.975498 0.754747 -3.056783
v 1.517308 0.763581 -3.058194
v 1.510759 0.757114 -3.057162
v 1.501813 0.754747 -3.056783
v 1.501813 0.755703 -3.065996
v 1.501813 0.761138 -3.073496
v 1.501813 0.769594 -3.077274
v 1.510759 0.769972 -3.074907
v 1.517308 0.771005 -3.068439
v 1.519706 0.772415 -3.059605
v -0.989648 0.788576 -2.909386
v -0.983229 0.782238 -2.908374
v -0.983229 0.789589 -2.903048
v 1.509544 0.782238 -2.908374
v 1.515963 0.788576 -2.909386
v 1.509544 0.789589 -2.903048
v -0.983229 2.226865 -3.139079
v -0.989648 2.220527 -3.138067
v -0.983229 2.221539 -3.131729
v 1.515963 2.220527 -3.138067
v 1.509544 2.226865 -3.139079
v 1.509544 2.221539 -3.131729
v -0.983229 2.194500 -3.301039
v -0.989648 2.195513 -3.294701
v -0.983229 2.201851 -3.295713
v 1.515963 2.195513 -3.294701
v 1.509544 2.194500 -3.301039
v 1.509544 2.201851 -3.295713
v -0.983229 0.757224 -3.065008
v -0.989648 0.763562 -3.066020
v -0.983229 0.762550 -3.072359
v 1.515963 0.763562 -3.066020
v 1.509544 0.757224 -3.065008
v 1.509544 0.762550 -3.072359
vt 0.915814 0.623668
vt 0.915597 0.625029
vt 0.893810 0.621550
vt 0.894028 0.620188
vt 0.916958 0.625247
vt 0.916961 0.624040
vt 0.880730 0.843358
vt 0.858943 0.839878
vt 0.892449 0.621332
vt 0.892822 0.620185
vt 0.915973 0.622671
vt 0.894187 0.619192
vt 0.882091 0.843575
vt 0.917117 0.623064
vt 0.917938 0.624196
vt 0.917955 0.625406
vt 0.880512 0.844719
vt 0.858726 0.841240
vt 0.857582 0.839661
vt 0.891452 0.621173
vt 0.891845 0.620029
vt 0.892978 0.619209
vt 0.883088 0.843734
vt 0.881718 0.844722
vt 0.880353 0.845716
vt 0.858567 0.842237
vt 0.857579 0.840867
vt 0.856585 0.839502
vt 0.882695 0.844878
vt 0.881562 0.845699
vt 0.857423 0.841844
vt 0.856602 0.840711
vt 0.858943 0.625029
vt 0.858726 0.623668
vt 0.880512 0.620188
vt 0.880730 0.621550
vt 0.857582 0.625247
vt 0.857579 0.624040
vt 0.858567 0.622671
vt 0.880353 0.619192
vt 0.882091 0.621332
vt 0.881718 0.620185
vt 0.915597 0.839878
vt 0.893810 0.843358
vt 0.892449 0.843575
vt 0.856585 0.625406
vt 0.856602 0.624196
vt 0.857423 0.623064
vt 0.881562 0.619209
vt 0.916958 0.839661
vt 0.882695 0.620029
vt 0.883088 0.621173
vt 0.894028 0.844719
vt 0.915814 0.841240
vt 0.892822 0.844722
vt 0.891452 0.843734
vt 0.916961 0.840867
vt 0.917955 0.839502
vt 0.894187 0.845716
vt 0.915973 0.842237
vt 0.892978 0.845699
vt 0.891845 0.844878
vt 0.917938 0.840711
vt 0.917117 0.841844
vt 0.898432 0.924229
vt 0.898373 0.925614
vt 0.876486 0.925614
vt 0.876545 0.924229
vt 0.899741 0.924229
vt 0.899523 0.925426
vt 0.875119 0.924229
vt 0.875272 0.925426
vt 0.876545 0.540679
vt 0.898432 0.540679
vt 0.899741 0.540679
vt 0.900582 0.924229
vt 0.900347 0.925426
vt 0.875119 0.540679
vt 0.874133 0.925426
vt 0.873958 0.924229
vt 0.898373 0.539294
vt 0.876486 0.539294
vt 0.899523 0.539482
vt 0.900582 0.540679
vt 0.873958 0.540679
vt 0.875272 0.539482
vt 0.900347 0.539482
vt 0.874133 0.539482
vt 0.876486 0.925614
vt 0.876545 0.924229
vt 0.898432 0.924229
vt 0.898373 0.925614
vt 0.875119 0.924229
vt 0.875272 0.925425
vt 0.876545 0.540679
vt 0.898432 0.540679
vt 0.899741 0.924229
vt 0.899522 0.925425
vt 0.875119 0.540679
vt 0.874133 0.925425
vt 0.873958 0.924229
vt 0.876486 0.539294
vt 0.898373 0.539294
vt 0.899741 0.540679
vt 0.900582 0.924229
vt 0.900347 0.925425
vt 0.873958 0.540679
vt 0.875272 0.539482
vt 0.899522 0.539482
vt 0.900582 0.540679
vt 0.874133 0.539482
vt 0.900347 0.539482
vt 0.547914 0.252475
vt 0.547913 0.251073
vt 0.925054 0.250963
vt 0.925054 0.252365
vt 0.546552 0.252418
vt 0.546737 0.251223
vt 0.926416 0.252307
vt 0.926231 0.251113
vt 0.925117 0.468038
vt 0.547977 0.468147
vt 0.546615 0.468090
vt 0.926479 0.467980
vt 0.547977 0.469435
vt 0.925117 0.469325
vt 0.546800 0.469220
vt 0.926294 0.469110
vt 0.343184 0.531674
vt 0.344545 0.531738
vt 0.343445 0.747408
vt 0.342083 0.747343
vt 0.344552 0.530336
vt 0.343375 0.530480
vt 0.721681 0.533662
vt 0.720580 0.749332
vt 0.343438 0.748695
vt 0.342262 0.748474
vt 0.721688 0.532260
vt 0.723043 0.533612
vt 0.721943 0.749281
vt 0.720574 0.750619
vt 0.722864 0.532416
vt 0.721752 0.750410
vn -0.000950 -0.984881 0.173228
vn -0.499790 -0.853347 0.148353
vn -0.499792 -0.857107 0.124806
vn -0.000950 -0.989847 0.142134
vn -0.707056 -0.696351 0.123158
vn -0.707056 -0.700073 0.099849
vn -0.966163 -0.252694 0.051722
vn -0.999875 0.000866 0.015795
vn -0.999875 -0.004097 -0.015280
vn -0.966163 -0.256236 0.029551
vn -0.000963 0.156062 0.987747
vn -0.000722 -0.357156 0.934044
vn 0.000722 -0.357156 0.934044
vn 0.000963 0.156062 0.987747
vn -0.000716 -0.586744 0.809772
vn 0.000716 -0.586744 0.809772
vn -0.000679 -0.913052 0.407842
vn 0.000950 -0.984881 0.173228
vn 0.000679 -0.913052 0.407842
vn -0.866041 0.077617 0.493911
vn -0.866042 0.080075 0.493518
vn -0.999875 0.004097 0.015279
vn -0.707128 0.110290 0.698432
vn -0.707128 0.112727 0.698042
vn -0.258699 0.151175 0.954055
vn -0.000963 0.159339 0.987224
vn -0.258699 0.153487 0.953686
vn 0.999875 0.000866 0.015796
vn 0.866066 -0.491654 0.090590
vn 0.866065 -0.495415 0.067044
vn 0.999875 -0.004097 -0.015280
vn 0.707064 -0.696342 0.123158
vn 0.707064 -0.700065 0.099849
vn 0.257687 -0.952304 0.163449
vn 0.000950 -0.989847 0.142134
vn 0.257686 -0.955844 0.141278
vn 0.258699 0.151175 0.954055
vn 0.258699 0.153487 0.953686
vn 0.000963 0.159339 0.987224
vn 0.707131 0.110290 0.698428
vn 0.866041 0.077617 0.493911
vn 0.866042 0.080075 0.493518
vn 0.707131 0.112727 0.698039
vn 0.999875 0.004097 0.015280
vn -0.966163 0.256235 -0.029550
vn -0.966163 0.252693 -0.051721
vn -0.999875 -0.000866 -0.015796
vn -0.707058 0.700071 -0.099848
vn -0.707058 0.700071 -0.099849
vn -0.707058 0.696348 -0.123159
vn -0.707058 0.696348 -0.123159
vn -0.257674 0.955848 -0.141278
vn -0.000950 0.989847 -0.142133
vn -0.000950 0.984881 -0.173228
vn -0.257674 0.952307 -0.163451
vn -0.000722 0.934044 0.357157
vn 0.000722 0.934044 0.357157
vn 0.000950 0.989847 -0.142133
vn -0.000716 0.809770 0.586747
vn 0.000716 0.809770 0.586747
vn -0.000679 0.407843 0.913052
vn 0.000679 0.407843 0.913052
vn 0.257671 0.955849 -0.141276
vn 0.257671 0.952308 -0.163448
vn 0.000950 0.984881 -0.173228
vn 0.707064 0.700065 -0.099847
vn 0.866065 0.495415 -0.067043
vn 0.866066 0.491653 -0.090591
vn 0.707064 0.696342 -0.123159
vn 0.999875 -0.000866 -0.015796
vn -0.866028 -0.077620 -0.493934
vn -0.866028 -0.080079 -0.493541
vn -0.707110 -0.110292 -0.698449
vn -0.707110 -0.112729 -0.698060
vn -0.258699 -0.151175 -0.954055
vn -0.000963 -0.156062 -0.987747
vn -0.000963 -0.159339 -0.987224
vn -0.258699 -0.153487 -0.953686
vn -0.000722 0.357155 -0.934045
vn 0.000722 0.357155 -0.934045
vn 0.000963 -0.156062 -0.987747
vn -0.000716 0.586746 -0.809770
vn 0.000716 0.586746 -0.809770
vn -0.000679 0.913049 -0.407850
vn 0.000679 0.913049 -0.407850
vn 0.258699 -0.151175 -0.954055
vn 0.258699 -0.153487 -0.953686
vn 0.000963 -0.159339 -0.987224
vn 0.707113 -0.110291 -0.698446
vn 0.866028 -0.077620 -0.493935
vn 0.866028 -0.080078 -0.493541
vn 0.707113 -0.112727 -0.698057
vn -0.000679 -0.994662 -0.103182
vn 0.000679 -0.994662 -0.103182
vn -0.000716 -0.809770 -0.586747
vn -0.000722 -0.630309 -0.776344
vn 0.000722 -0.630309 -0.776344
vn 0.000716 -0.809770 -0.586747
vn -0.946106 -0.190025 0.262247
vn -0.707842 -0.414463 0.571996
vn -0.499477 -0.620217 0.604858
vn -0.229023 -0.898147 0.375342
vn -0.499479 -0.381600 0.777754
vn -0.229026 -0.076951 0.970374
vn 0.229016 -0.898149 0.375340
vn 0.499478 -0.620215 0.604859
vn 0.707842 -0.414461 0.571999
vn 0.946110 -0.190009 0.262245
vn 0.499477 -0.381600 0.777756
vn 0.229036 -0.076951 0.970372
vn -0.229001 0.970380 0.076950
vn -0.499481 0.777752 0.381602
vn -0.707845 0.571995 0.414460
vn -0.946099 0.262267 0.190034
vn -0.499493 0.604855 0.620208
vn -0.228987 0.375349 0.898153
vn 0.946102 0.262260 0.190028
vn 0.707841 0.571995 0.414467
vn 0.499476 0.777755 0.381603
vn 0.229001 0.970379 0.076965
vn 0.499497 0.604861 0.620198
vn 0.228991 0.375345 0.898153
vn -0.229023 0.076952 -0.970375
vn -0.499489 0.381604 -0.777746
vn -0.707834 0.414475 -0.571997
vn -0.946107 0.190026 -0.262244
vn -0.499478 0.620215 -0.604860
vn -0.228998 0.898149 -0.375352
vn 0.946110 0.190007 -0.262248
vn 0.707840 0.414464 -0.571999
vn 0.499487 0.381598 -0.777751
vn 0.229010 0.076951 -0.970378
vn 0.499486 0.620208 -0.604860
vn 0.229001 0.898155 -0.375335
vn -0.229007 -0.970379 -0.076943
vn -0.499478 -0.777754 -0.381604
vn -0.707844 -0.571996 -0.414460
vn -0.946100 -0.262266 -0.190030
vn -0.499482 -0.604856 -0.620215
vn -0.228986 -0.375348 -0.898153
vn 0.946108 -0.262240 -0.190029
vn 0.707843 -0.571995 -0.414464
vn 0.499475 -0.777756 -0.381602
vn 0.229006 -0.970380 -0.076939
vn 0.499482 -0.604855 -0.620216
vn 0.228980 -0.375348 -0.898155
s 1
g Paintings Painting2
usemtl lambert9SG
f 291/497/447 290/498/448 343/499/449 351/500/450
f 290/443/448 289/433/451 344/436/452 343/444/449
f 289/433/453 297/434/454 345/435/455 344/436/456
f 294/545/457 293/546/458 304/547/459 303/548/460
f 293/508/458 292/501/461 305/507/462 304/516/459
f 292/501/463 291/497/447 306/506/464 305/507/465
f 297/434/454 296/437/466 310/445/467 309/439/468
f 296/437/466 295/448/469 311/455/470 310/445/467
f 295/549/471 294/545/457 312/554/472 311/555/473
f 300/465/474 299/466/475 352/467/476 360/468/477
f 299/466/475 298/471/478 353/472/479 352/467/476
f 298/513/480 306/506/464 354/505/481 353/514/482
f 303/548/460 302/551/483 322/556/484 321/553/485
f 302/478/486 301/469/487 323/477/488 322/488/489
f 301/469/487 300/465/474 324/476/490 323/477/488
f 309/439/468 308/449/491 328/450/492 327/440/493
f 308/449/494 307/457/495 329/458/496 328/450/497
f 307/521/498 315/522/499 330/523/500 329/524/501
f 315/522/499 314/525/502 319/531/503 318/527/504
f 314/525/502 313/533/505 320/539/506 319/531/503
f 313/557/507 312/554/472 321/553/485 320/558/508
f 318/527/504 317/534/509 340/535/510 339/528/511
f 317/491/512 316/485/513 341/486/514 340/492/515
f 316/485/513 324/476/490 342/475/516 341/486/514
f 327/440/493 326/451/517 346/441/518 345/435/455
f 326/451/517 325/460/519 347/452/520 346/441/518
f 325/561/521 333/562/522 348/563/523 347/564/524
f 333/562/522 332/565/525 337/571/526 336/567/527
f 332/537/525 331/529/528 338/536/529 337/542/526
f 331/529/530 330/523/500 339/528/511 338/536/531
f 336/567/527 335/572/532 358/573/533 357/568/534
f 335/490/535 334/482/536 359/473/537 358/484/538
f 334/482/536 342/475/516 360/468/477 359/473/537
f 351/500/450 350/503/539 355/510/540 354/505/481
f 350/503/541 349/512/542 356/517/543 355/510/544
f 349/569/542 348/563/523 357/568/534 356/574/543
f 294/545/457 303/548/460 321/553/485 312/554/472
f 315/522/499 318/527/504 339/528/511 330/523/500
f 333/562/522 336/567/527 357/568/534 348/563/523
f 351/500/450 354/505/481 306/506/464 291/497/447
f 300/465/474 360/468/477 342/475/516 324/476/490
f 345/435/455 297/434/454 309/439/468 327/440/493
f 296/437/466 297/434/454 289/433/453 361/438/545
f 361/438/546 289/433/451 290/443/448 362/446/547
f 290/498/448 291/497/447 292/501/463 362/502/548
f 362/502/547 292/501/461 293/508/458 363/509/549
f 293/546/458 294/545/457 295/549/471 363/550/550
f 363/447/549 295/448/469 296/437/466 361/438/546
f 361/438/546 362/446/547 363/447/549
f 305/507/465 306/506/464 298/513/480 364/515/551
f 364/480/552 298/471/478 299/466/475 365/470/553
f 299/466/475 300/465/474 301/469/487 365/470/554
f 365/470/553 301/469/487 302/478/486 366/479/555
f 302/551/483 303/548/460 304/547/459 366/552/556
f 366/519/555 304/516/459 305/507/462 364/515/552
f 364/480/552 365/470/553 366/479/555
f 314/525/502 315/522/499 307/521/498 367/526/557
f 367/462/558 307/457/495 308/449/494 368/456/559
f 308/449/491 309/439/468 310/445/467 368/456/560
f 368/456/559 310/445/467 311/455/470 369/461/561
f 311/555/473 312/554/472 313/557/507 369/559/562
f 369/532/561 313/533/505 314/525/502 367/526/558
f 367/462/558 368/456/559 369/461/561
f 323/477/488 324/476/490 316/485/513 370/487/563
f 370/487/564 316/485/513 317/491/512 371/493/565
f 317/534/509 318/527/504 319/531/503 371/540/566
f 371/540/565 319/531/503 320/539/506 372/543/567
f 320/558/508 321/553/485 322/556/484 372/560/568
f 372/494/567 322/488/489 323/477/488 370/487/564
f 370/487/564 371/493/565 372/494/567
f 332/565/525 333/562/522 325/561/521 373/566/569
f 373/464/570 325/460/519 326/451/517 374/459/571
f 326/451/517 327/440/493 328/450/492 374/459/572
f 374/459/571 328/450/497 329/458/496 375/463/573
f 329/524/501 330/523/500 331/529/530 375/530/574
f 375/530/573 331/529/528 332/537/525 373/538/570
f 373/464/570 374/459/571 375/463/573
f 341/486/514 342/475/516 334/482/536 376/489/575
f 376/489/576 334/482/536 335/490/535 377/495/577
f 335/572/532 336/567/527 337/571/526 377/575/578
f 377/544/577 337/542/526 338/536/529 378/541/579
f 338/536/531 339/528/511 340/535/510 378/541/580
f 378/496/579 340/492/515 341/486/514 376/489/576
f 376/489/576 377/495/577 378/496/579
f 350/503/539 351/500/450 343/499/449 379/504/581
f 379/454/582 343/444/449 344/436/452 380/442/583
f 344/436/456 345/435/455 346/441/518 380/442/584
f 380/442/583 346/441/518 347/452/520 381/453/585
f 347/564/524 348/563/523 349/569/542 381/570/586
f 381/511/585 349/512/542 350/503/541 379/504/582
f 379/454/582 380/442/583 381/453/585
f 359/473/537 360/468/477 352/467/476 382/474/587
f 382/474/588 352/467/476 353/472/479 383/481/589
f 353/514/482 354/505/481 355/510/540 383/518/590
f 383/518/589 355/510/544 356/517/543 384/520/591
f 356/574/543 357/568/534 358/573/533 384/576/592
f 384/483/591 358/484/538 359/473/537 382/474/588
f 382/474/588 383/481/589 384/483/591
g default
v -0.996834 0.789830 -3.194677
v -0.989567 0.782655 -3.193531
v -0.979641 0.780028 -3.193112
v -0.979641 0.784220 -3.183729
v -0.979641 0.792542 -3.177699
v -0.979641 0.802763 -3.176638
v -0.989567 0.802344 -3.179265
v -0.996834 0.801198 -3.186440
v -0.999494 0.799632 -3.196242
v 1.962620 0.782655 -3.193531
v 1.969887 0.789830 -3.194677
v 1.972547 0.799632 -3.196242
v 1.969887 0.801198 -3.186440
v 1.962620 0.802344 -3.179265
v 1.952694 0.802763 -3.176638
v 1.952694 0.792542 -3.177699
v 1.952694 0.784220 -3.183729
v 1.952694 0.780028 -3.193112
v -0.989567 2.418262 -3.454736
v -0.996834 2.411086 -3.453590
v -0.999494 2.401284 -3.452025
v -0.996834 2.402849 -3.442223
v -0.989567 2.403995 -3.435047
v -0.979641 2.404415 -3.432420
v -0.979641 2.413797 -3.436612
v -0.979641 2.419827 -3.444934
v -0.979641 2.420888 -3.455155
v 1.969887 2.411086 -3.453590
v 1.962620 2.418262 -3.454736
v 1.952694 2.420888 -3.455155
v 1.952694 2.419827 -3.444934
v 1.952694 2.413797 -3.436612
v 1.952694 2.404415 -3.432420
v 1.962620 2.403995 -3.435047
v 1.969887 2.402849 -3.442223
v 1.972547 2.401284 -3.452025
v -0.989567 2.373523 -3.625856
v -0.996834 2.374669 -3.618680
v -0.999494 2.376235 -3.608878
v -0.996834 2.386037 -3.610443
v -0.989567 2.393212 -3.611589
v -0.979641 2.395839 -3.612009
v -0.979641 2.391647 -3.621391
v -0.979641 2.383325 -3.627421
v -0.979641 2.373104 -3.628482
v 1.969887 2.374669 -3.618680
v 1.962620 2.373523 -3.625856
v 1.952694 2.373104 -3.628482
v 1.952694 2.383325 -3.627421
v 1.952694 2.391647 -3.621391
v 1.952694 2.395839 -3.612009
v 1.962620 2.393212 -3.611589
v 1.969887 2.386037 -3.610443
v 1.972547 2.376235 -3.608878
v -0.989567 0.757605 -3.350384
v -0.996834 0.764781 -3.351530
v -0.999494 0.774583 -3.353096
v -0.996834 0.773018 -3.362898
v -0.989567 0.771872 -3.370073
v -0.979641 0.771452 -3.372700
v -0.979641 0.762070 -3.368508
v -0.979641 0.756040 -3.360186
v -0.979641 0.754979 -3.349965
v 1.969887 0.764781 -3.351530
v 1.962620 0.757605 -3.350384
v 1.952694 0.754979 -3.349965
v 1.952694 0.756040 -3.360186
v 1.952694 0.762070 -3.368508
v 1.952694 0.771452 -3.372700
v 1.962620 0.771872 -3.370073
v 1.969887 0.773018 -3.362898
v 1.972547 0.774583 -3.353096
v -0.995341 0.792515 -3.186419
v -0.988219 0.785482 -3.185296
v -0.988219 0.793638 -3.179386
v 1.961272 0.785482 -3.185296
v 1.968394 0.792515 -3.186419
v 1.961272 0.793638 -3.179386
v -0.988219 2.418140 -3.446030
v -0.995341 2.411107 -3.444907
v -0.988219 2.412230 -3.437874
v 1.968394 2.411107 -3.444907
v 1.961272 2.418140 -3.446030
v 1.961272 2.412230 -3.437874
v -0.988219 2.382229 -3.625734
v -0.995341 2.383353 -3.618701
v -0.988219 2.390385 -3.619824
v 1.968394 2.383353 -3.618701
v 1.961272 2.382229 -3.625734
v 1.961272 2.390385 -3.619824
v -0.988219 0.757727 -3.359090
v -0.995341 0.764760 -3.360214
v -0.988219 0.763637 -3.367246
v 1.968394 0.764760 -3.360214
v 1.961272 0.757727 -3.359090
v 1.961272 0.763637 -3.367246
vt 0.919306 0.609460
vt 0.919065 0.610970
vt 0.894893 0.607110
vt 0.895134 0.605600
vt 0.920576 0.611212
vt 0.920579 0.609874
vt 0.879647 0.857797
vt 0.855475 0.853937
vt 0.893382 0.606869
vt 0.893796 0.605596
vt 0.919483 0.608354
vt 0.895311 0.604494
vt 0.881158 0.858039
vt 0.920752 0.608790
vt 0.921663 0.610047
vt 0.921682 0.611388
vt 0.879406 0.859308
vt 0.855234 0.855448
vt 0.853964 0.853696
vt 0.892277 0.606692
vt 0.892712 0.605423
vt 0.893969 0.604512
vt 0.882263 0.858215
vt 0.880744 0.859311
vt 0.879229 0.860414
vt 0.855057 0.856553
vt 0.853961 0.855034
vt 0.852858 0.853519
vt 0.881828 0.859484
vt 0.880571 0.860395
vt 0.853788 0.856118
vt 0.852877 0.854861
vt 0.855475 0.610970
vt 0.855233 0.609460
vt 0.879406 0.605600
vt 0.879647 0.607110
vt 0.853964 0.611212
vt 0.853961 0.609874
vt 0.855057 0.608354
vt 0.879229 0.604494
vt 0.881158 0.606869
vt 0.880744 0.605596
vt 0.919065 0.853937
vt 0.894893 0.857797
vt 0.893382 0.858039
vt 0.852858 0.611388
vt 0.852877 0.610047
vt 0.853788 0.608790
vt 0.880571 0.604512
vt 0.920576 0.853696
vt 0.881828 0.605423
vt 0.882263 0.606692
vt 0.895134 0.859308
vt 0.919306 0.855448
vt 0.893796 0.859311
vt 0.892277 0.858215
vt 0.920579 0.855034
vt 0.921682 0.853519
vt 0.895311 0.860414
vt 0.919483 0.856553
vt 0.893969 0.860395
vt 0.892712 0.859484
vt 0.921663 0.854861
vt 0.920752 0.856118
vt 0.899655 0.959452
vt 0.899590 0.960989
vt 0.875305 0.960989
vt 0.875370 0.959452
vt 0.901107 0.959452
vt 0.900865 0.960780
vt 0.873788 0.959452
vt 0.873957 0.960780
vt 0.875370 0.505455
vt 0.899655 0.505455
vt 0.901107 0.505455
vt 0.902041 0.959452
vt 0.901780 0.960780
vt 0.873788 0.505455
vt 0.872694 0.960780
vt 0.872499 0.959452
vt 0.899590 0.503919
vt 0.875305 0.503919
vt 0.900865 0.504127
vt 0.902041 0.505455
vt 0.872499 0.505455
vt 0.873957 0.504127
vt 0.901780 0.504127
vt 0.872694 0.504127
vt 0.875305 0.960989
vt 0.875370 0.959452
vt 0.899655 0.959452
vt 0.899590 0.960989
vt 0.873788 0.959452
vt 0.873957 0.960780
vt 0.875370 0.505456
vt 0.899655 0.505456
vt 0.901107 0.959452
vt 0.900865 0.960780
vt 0.873788 0.505456
vt 0.872694 0.960780
vt 0.872499 0.959452
vt 0.875305 0.503919
vt 0.899590 0.503919
vt 0.901107 0.505456
vt 0.902041 0.959452
vt 0.901780 0.960780
vt 0.872499 0.505456
vt 0.873957 0.504128
vt 0.900865 0.504128
vt 0.902041 0.505456
vt 0.872694 0.504128
vt 0.901780 0.504128
vt 0.478426 0.004750
vt 0.478426 0.003193
vt 0.924832 0.003063
vt 0.924833 0.004619
vt 0.476915 0.004686
vt 0.477120 0.003361
vt 0.926344 0.004555
vt 0.926138 0.003230
vt 0.924904 0.248448
vt 0.478497 0.248578
vt 0.476986 0.248515
vt 0.926415 0.248384
vt 0.478498 0.250007
vt 0.924904 0.249877
vt 0.477191 0.249769
vt 0.926210 0.249638
vt 0.308474 0.517418
vt 0.309984 0.517490
vt 0.308740 0.761315
vt 0.307229 0.761244
vt 0.309992 0.515934
vt 0.308686 0.516094
vt 0.756385 0.519767
vt 0.755141 0.763593
vt 0.308733 0.762744
vt 0.307428 0.762498
vt 0.756393 0.518211
vt 0.757897 0.519711
vt 0.756652 0.763537
vt 0.755134 0.765021
vt 0.757698 0.518385
vt 0.756441 0.764789
vn -0.000890 -0.984881 0.173229
vn -0.499790 -0.853347 0.148353
vn -0.499788 -0.857109 0.124806
vn -0.000890 -0.989847 0.142132
vn -0.707059 -0.696347 0.123159
vn -0.707059 -0.700070 0.099849
vn -0.966165 -0.252687 0.051722
vn -0.999875 0.000896 0.015791
vn -0.999875 -0.004067 -0.015285
vn -0.966165 -0.256228 0.029551
vn -0.000902 0.156092 0.987742
vn -0.000677 -0.357161 0.934043
vn 0.000677 -0.357161 0.934043
vn 0.000902 0.156092 0.987742
vn -0.000671 -0.586742 0.809774
vn 0.000671 -0.586742 0.809774
vn -0.000637 -0.913051 0.407845
vn 0.000890 -0.984881 0.173229
vn 0.000637 -0.913051 0.407845
vn -0.866038 0.077640 0.493913
vn -0.866038 0.080053 0.493527
vn -0.999875 0.004067 0.015285
vn -0.707134 0.110312 0.698422
vn -0.707134 0.112704 0.698040
vn -0.258676 0.151199 0.954057
vn -0.000902 0.159309 0.987228
vn -0.258676 0.153468 0.953695
vn 0.999875 0.000896 0.015791
vn 0.866064 -0.491656 0.090591
vn 0.866064 -0.495417 0.067044
vn 0.999875 -0.004067 -0.015285
vn 0.707055 -0.696352 0.123157
vn 0.707056 -0.700074 0.099848
vn 0.257680 -0.952305 0.163451
vn 0.000890 -0.989847 0.142132
vn 0.257681 -0.955846 0.141280
vn 0.258676 0.151200 0.954057
vn 0.258676 0.153470 0.953695
vn 0.000902 0.159309 0.987228
vn 0.707137 0.110311 0.698419
vn 0.866038 0.077640 0.493913
vn 0.866038 0.080053 0.493527
vn 0.707137 0.112702 0.698037
vn 0.999875 0.004067 0.015285
vn -0.966165 0.256227 -0.029552
vn -0.966165 0.252686 -0.051723
vn -0.999875 -0.000896 -0.015791
vn -0.707060 0.700068 -0.099849
vn -0.707060 0.700068 -0.099849
vn -0.707061 0.696346 -0.123159
vn -0.707061 0.696346 -0.123159
vn -0.257674 0.955848 -0.141278
vn -0.000890 0.989847 -0.142133
vn -0.000890 0.984881 -0.173230
vn -0.257673 0.952307 -0.163452
vn -0.000677 0.934043 0.357161
vn 0.000677 0.934043 0.357161
vn 0.000890 0.989847 -0.142133
vn -0.000671 0.809775 0.586740
vn 0.000671 0.809775 0.586740
vn -0.000637 0.407844 0.913051
vn 0.000637 0.407844 0.913051
vn 0.257676 0.955847 -0.141280
vn 0.257676 0.952306 -0.163453
vn 0.000890 0.984881 -0.173230
vn 0.707057 0.700073 -0.099847
vn 0.866066 0.495414 -0.067044
vn 0.866066 0.491652 -0.090591
vn 0.707056 0.696350 -0.123157
vn 0.999875 -0.000896 -0.015791
vn -0.866031 -0.077642 -0.493925
vn -0.866032 -0.080055 -0.493539
vn -0.707091 -0.110319 -0.698464
vn -0.707091 -0.112710 -0.698082
vn -0.258676 -0.151199 -0.954057
vn -0.000902 -0.156092 -0.987742
vn -0.000902 -0.159309 -0.987228
vn -0.258676 -0.153468 -0.953695
vn -0.000677 0.357164 -0.934041
vn 0.000677 0.357164 -0.934041
vn 0.000902 -0.156092 -0.987742
vn -0.000671 0.586742 -0.809774
vn 0.000671 0.586742 -0.809774
vn -0.000637 0.913051 -0.407845
vn 0.000637 0.913051 -0.407845
vn 0.258676 -0.151200 -0.954057
vn 0.258676 -0.153470 -0.953695
vn 0.000902 -0.159309 -0.987228
vn 0.707094 -0.110317 -0.698461
vn 0.866031 -0.077642 -0.493925
vn 0.866032 -0.080055 -0.493539
vn 0.707094 -0.112709 -0.698079
vn -0.000677 -0.934043 -0.357161
vn 0.000677 -0.934043 -0.357161
vn -0.000677 -0.630309 -0.776344
vn 0.000677 -0.630309 -0.776344
vn -0.946103 -0.190030 0.262255
vn -0.707844 -0.414458 0.571999
vn -0.499489 -0.620211 0.604854
vn -0.229005 -0.898148 0.375350
vn -0.499491 -0.381600 0.777746
vn -0.228994 -0.076952 0.970381
vn 0.229005 -0.898148 0.375349
vn 0.499490 -0.620210 0.604855
vn 0.707843 -0.414457 0.572000
vn 0.946102 -0.190034 0.262256
vn 0.499485 -0.381597 0.777752
vn 0.229002 -0.076952 0.970380
vn -0.229003 0.970378 0.076971
vn -0.499478 0.777761 0.381590
vn -0.707843 0.572004 0.414451
vn -0.946097 0.262277 0.190030
vn -0.499481 0.604866 0.620206
vn -0.229020 0.375332 0.898151
vn 0.946098 0.262276 0.190027
vn 0.707847 0.571994 0.414458
vn 0.499476 0.777756 0.381601
vn 0.229007 0.970378 0.076959
vn 0.499480 0.604867 0.620206
vn 0.229014 0.375328 0.898154
vn -0.229022 0.076953 -0.970375
vn -0.499494 0.381597 -0.777747
vn -0.707844 0.414457 -0.571998
vn -0.946100 0.190038 -0.262259
vn -0.499484 0.620211 -0.604859
vn -0.228994 0.898145 -0.375363
vn 0.946099 0.190041 -0.262262
vn 0.707850 0.414453 -0.571993
vn 0.499492 0.381591 -0.777750
vn 0.229027 0.076954 -0.970374
vn 0.499480 0.620207 -0.604866
vn 0.228996 0.898150 -0.375350
vn -0.229014 -0.970378 -0.076940
vn -0.499482 -0.777755 -0.381596
vn -0.707843 -0.571999 -0.414458
vn -0.946100 -0.262270 -0.190023
vn -0.499473 -0.604860 -0.620219
vn -0.229006 -0.375342 -0.898151
vn 0.946100 -0.262271 -0.190022
vn 0.707853 -0.571986 -0.414459
vn 0.499483 -0.777753 -0.381598
vn 0.229016 -0.970377 -0.076944
vn 0.499480 -0.604859 -0.620214
vn 0.229006 -0.375340 -0.898152
s 1
g Paintings Painting1
usemtl lambert9SG
f 387/641/593 386/642/594 439/643/595 447/644/596
f 386/587/594 385/577/597 440/580/598 439/588/595
f 385/577/599 393/578/600 441/579/601 440/580/602
f 390/689/603 389/690/604 400/691/605 399/692/606
f 389/652/604 388/645/607 401/651/608 400/660/605
f 388/645/609 387/641/593 402/650/610 401/651/611
f 393/578/600 392/581/612 406/589/613 405/583/614
f 392/581/612 391/592/615 407/599/616 406/589/613
f 391/693/617 390/689/603 408/698/618 407/699/619
f 396/609/620 395/610/621 448/611/622 456/612/623
f 395/610/621 394/615/624 449/616/625 448/611/622
f 394/657/626 402/650/610 450/649/627 449/658/628
f 399/692/606 398/695/629 418/700/630 417/697/631
f 398/622/632 397/613/633 419/621/634 418/632/635
f 397/613/633 396/609/620 420/620/636 419/621/634
f 405/583/614 404/593/637 424/594/638 423/584/639
f 404/593/640 403/601/641 425/602/642 424/594/643
f 403/665/644 411/666/645 426/667/646 425/668/647
f 411/666/645 410/669/648 415/675/649 414/671/650
f 410/669/648 409/677/651 416/683/652 415/675/649
f 409/701/653 408/698/618 417/697/631 416/702/654
f 414/671/650 413/678/655 436/679/656 435/672/657
f 413/635/658 412/629/659 437/630/660 436/636/661
f 412/629/659 420/620/636 438/619/662 437/630/660
f 423/584/639 422/595/663 442/585/664 441/579/601
f 422/595/663 421/604/665 443/596/666 442/585/664
f 421/705/667 429/706/668 444/707/669 443/708/670
f 429/706/668 428/709/671 433/715/672 432/711/673
f 428/681/671 427/673/674 434/680/675 433/686/672
f 427/673/676 426/667/646 435/672/657 434/680/677
f 432/711/673 431/716/678 454/717/679 453/712/680
f 431/634/681 430/626/682 455/617/683 454/628/684
f 430/626/682 438/619/662 456/612/623 455/617/683
f 447/644/596 446/647/685 451/654/686 450/649/627
f 446/647/685 445/656/687 452/661/688 451/654/686
f 445/713/687 444/707/669 453/712/680 452/718/688
f 390/689/603 399/692/606 417/697/631 408/698/618
f 411/666/645 414/671/650 435/672/657 426/667/646
f 429/706/668 432/711/673 453/712/680 444/707/669
f 447/644/596 450/649/627 402/650/610 387/641/593
f 396/609/620 456/612/623 438/619/662 420/620/636
f 441/579/601 393/578/600 405/583/614 423/584/639
f 392/581/612 393/578/600 385/577/599 457/582/689
f 457/582/690 385/577/597 386/587/594 458/590/691
f 386/642/594 387/641/593 388/645/609 458/646/692
f 458/646/691 388/645/607 389/652/604 459/653/693
f 389/690/604 390/689/603 391/693/617 459/694/694
f 459/591/693 391/592/615 392/581/612 457/582/690
f 457/582/690 458/590/691 459/591/693
f 401/651/611 402/650/610 394/657/626 460/659/695
f 460/624/696 394/615/624 395/610/621 461/614/697
f 395/610/621 396/609/620 397/613/633 461/614/698
f 461/614/697 397/613/633 398/622/632 462/623/699
f 398/695/629 399/692/606 400/691/605 462/696/700
f 462/663/699 400/660/605 401/651/608 460/659/696
f 460/624/696 461/614/697 462/623/699
f 410/669/648 411/666/645 403/665/644 463/670/701
f 463/606/702 403/601/641 404/593/640 464/600/703
f 404/593/637 405/583/614 406/589/613 464/600/704
f 464/600/703 406/589/613 407/599/616 465/605/705
f 407/699/619 408/698/618 409/701/653 465/703/706
f 465/676/705 409/677/651 410/669/648 463/670/702
f 463/606/702 464/600/703 465/605/705
f 419/621/634 420/620/636 412/629/659 466/631/707
f 466/631/708 412/629/659 413/635/658 467/637/709
f 413/678/655 414/671/650 415/675/649 467/684/710
f 467/684/709 415/675/649 416/683/652 468/687/711
f 416/702/654 417/697/631 418/700/630 468/704/712
f 468/638/711 418/632/635 419/621/634 466/631/708
f 466/631/708 467/637/709 468/638/711
f 428/709/671 429/706/668 421/705/667 469/710/713
f 469/608/714 421/604/665 422/595/663 470/603/715
f 422/595/663 423/584/639 424/594/638 470/603/716
f 470/603/715 424/594/643 425/602/642 471/607/717
f 425/668/647 426/667/646 427/673/676 471/674/718
f 471/674/717 427/673/674 428/681/671 469/682/714
f 469/608/714 470/603/715 471/607/717
f 437/630/660 438/619/662 430/626/682 472/633/719
f 472/633/720 430/626/682 431/634/681 473/639/721
f 431/716/678 432/711/673 433/715/672 473/719/722
f 473/688/721 433/686/672 434/680/675 474/685/723
f 434/680/677 435/672/657 436/679/656 474/685/724
f 474/640/723 436/636/661 437/630/660 472/633/720
f 472/633/720 473/639/721 474/640/723
f 446/647/685 447/644/596 439/643/595 475/648/725
f 475/598/726 439/588/595 440/580/598 476/586/727
f 440/580/602 441/579/601 442/585/664 476/586/728
f 476/586/727 442/585/664 443/596/666 477/597/729
f 443/708/670 444/707/669 445/713/687 477/714/730
f 477/655/729 445/656/687 446/647/685 475/648/726
f 475/598/726 476/586/727 477/597/729
f 455/617/683 456/612/623 448/611/622 478/618/731
f 478/618/732 448/611/622 449/616/625 479/625/733
f 449/658/628 450/649/627 451/654/686 479/662/734
f 479/662/733 451/654/686 452/661/688 480/664/735
f 452/718/688 453/712/680 454/717/679 480/720/736
f 480/627/735 454/628/684 455/617/683 478/618/732
f 478/618/732 479/625/733 480/627/735
