# This file uses centimeters as units for non-parametric coordinates.

mtllib Objects1toPaint.mtl
g default
v -2.003304 0.000000 -0.286094
v 4.000000 0.000000 -0.286094
v -2.003304 2.125005 -0.286094
v 4.000000 2.125005 -0.286094
v -2.003304 2.125005 -2.000000
v 4.000000 2.125005 -2.000000
v -2.003304 0.000000 -2.000000
v 4.000000 0.000000 -2.000000
vt 0.404634 0.394520
vt 0.097775 0.398519
vt 0.403217 0.285898
vt 0.096343 0.289902
vt 0.402074 0.198287
vt 0.095204 0.202294
vt 0.400657 0.089666
vt 0.093805 0.093679
vt 0.399514 0.002064
vt 0.092643 0.006061
vt 0.010160 0.399665
vt 0.008743 0.291043
vt 0.492242 0.393377
vt 0.490825 0.284755
vn 0.000000 0.000000 1.000000
vn 0.000000 0.000000 1.000000
vn 0.000000 0.000000 1.000000
vn 0.000000 0.000000 1.000000
vn 0.000000 1.000000 0.000000
vn 0.000000 1.000000 0.000000
vn 0.000000 1.000000 0.000000
vn 0.000000 1.000000 0.000000
vn 0.000000 0.000000 -1.000000
vn 0.000000 0.000000 -1.000000
vn 0.000000 0.000000 -1.000000
vn 0.000000 0.000000 -1.000000
vn 0.000000 -1.000000 0.000000
vn 0.000000 -1.000000 0.000000
vn 0.000000 -1.000000 0.000000
vn 0.000000 -1.000000 0.000000
vn 1.000000 0.000000 0.000000
vn 1.000000 0.000000 0.000000
vn 1.000000 0.000000 0.000000
vn 1.000000 0.000000 0.000000
vn -1.000000 0.000000 0.000000
vn -1.000000 0.000000 0.000000
vn -1.000000 0.000000 0.000000
vn -1.000000 0.000000 0.000000
s off
g ConcreteShellDock_WB AllObjects AllObjects Objects
usemtl lambert2SG
f 1/1/1 2/2/2 4/4/3 3/3/4
f 3/3/5 4/4/6 6/6/7 5/5/8
f 5/5/9 6/6/10 8/8/11 7/7/12
f 7/7/13 8/8/14 2/10/15 1/9/16
f 2/2/17 8/11/18 6/12/19 4/4/20
f 7/13/21 1/1/22 3/3/23 5/14/24
g default
v 3.745516 4.615490 -2.079582
v 3.750606 4.605298 -2.088066
v 2.537957 4.224225 -2.074942
v 2.538456 4.220321 -2.084222
v 2.541057 4.211352 -2.088066
v 2.413971 4.169961 -1.955180
v 2.414757 4.180033 -1.954878
v 2.422434 4.186599 -1.954147
v 2.422434 4.186599 -1.681402
v 2.414757 4.180033 -1.680672
v 2.413971 4.169961 -1.680370
v 2.501625 4.212391 -2.068925
v 2.500045 4.207811 -2.077861
v 2.501785 4.198562 -2.081562
v 2.469739 4.202006 -2.051938
v 2.465655 4.196610 -2.059539
v 2.466358 4.187023 -2.062687
v 2.444435 4.193765 -2.025478
v 2.438363 4.187721 -2.031001
v 2.438242 4.177866 -2.033288
v 2.428188 4.188474 -1.992138
v 2.420840 4.182014 -1.995042
v 2.420191 4.171987 -1.996244
v 3.745516 4.615490 -1.552973
v 3.750606 4.605298 -1.544489
v 2.543921 4.212285 -1.544489
v 2.541320 4.221254 -1.548332
v 2.540821 4.225158 -1.557612
v 2.428329 4.188519 -1.642486
v 2.420980 4.182060 -1.639583
v 2.420331 4.172032 -1.638380
v 2.444982 4.193943 -1.608311
v 2.438910 4.187900 -1.602788
v 2.438789 4.178044 -1.600501
v 2.470920 4.202391 -1.581189
v 2.466836 4.196995 -1.573588
v 2.467539 4.187407 -1.570440
v 2.503603 4.213036 -1.563776
v 2.502024 4.208456 -1.554841
v 2.503764 4.199206 -1.551139
v 3.804910 4.438568 -2.088066
v 3.808997 4.426017 -2.074942
v 3.807800 4.429693 -2.084222
v 2.600436 4.032393 -2.074942
v 2.598541 4.035841 -2.084222
v 2.595361 4.044622 -2.088066
v 3.804910 4.438568 -1.544489
v 3.807800 4.429693 -1.548332
v 3.808997 4.426017 -1.557612
v 2.603300 4.033326 -1.557612
v 2.601405 4.036775 -1.548332
v 2.598225 4.045555 -1.544489
v 2.484913 3.994767 -1.954147
v 2.474841 3.995553 -1.954878
v 2.468274 4.003231 -1.955180
v 2.484913 3.994767 -1.681402
v 2.474841 3.995553 -1.680672
v 2.468274 4.003231 -1.680370
v 2.564104 4.020559 -2.068925
v 2.560129 4.023331 -2.077861
v 2.556089 4.031831 -2.081562
v 2.532218 4.010175 -2.051938
v 2.525740 4.012131 -2.059539
v 2.520661 4.020293 -2.062687
v 2.506914 4.001933 -2.025478
v 2.498447 4.003242 -2.031001
v 2.492546 4.011136 -2.033288
v 2.490668 3.996642 -1.992138
v 2.480925 3.997535 -1.995042
v 2.474494 4.005257 -1.996244
v 2.490808 3.996687 -1.642486
v 2.481065 3.997580 -1.639583
v 2.474635 4.005302 -1.638380
v 2.507461 4.002111 -1.608311
v 2.498994 4.003420 -1.602788
v 2.493093 4.011314 -1.600501
v 2.533399 4.010559 -1.581189
v 2.526920 4.012515 -1.573588
v 2.521842 4.020678 -1.570440
v 2.566082 4.021204 -1.563776
v 2.562109 4.023976 -1.554841
v 2.558068 4.032476 -1.551139
vt 0.329790 0.968017
vt 0.327688 0.968250
vt 0.328483 0.776933
vt 0.330001 0.776982
vt 0.301317 0.968142
vt 0.302106 0.776822
vt 0.328509 0.770644
vt 0.330051 0.770654
vt 0.299799 0.968135
vt 0.300587 0.776859
vt 0.302126 0.770539
vt 0.328533 0.764358
vt 0.330066 0.764367
vt 0.300586 0.770540
vt 0.302145 0.764250
vt 0.328579 0.758070
vt 0.330116 0.758176
vt 0.300610 0.764253
vt 0.302147 0.757961
vt 0.300604 0.758053
vt 0.882742 0.039973
vt 0.885922 0.040354
vt 0.884919 0.326053
vt 0.882642 0.326115
vt 0.884923 0.335731
vt 0.882623 0.335731
vt 0.843113 0.326121
vt 0.843012 0.039973
vt 0.884909 0.345331
vt 0.882619 0.345343
vt 0.843131 0.335731
vt 0.840737 0.039974
vt 0.840836 0.326058
vt 0.884960 0.354819
vt 0.882654 0.354971
vt 0.843135 0.345343
vt 0.840831 0.335731
vt 0.843100 0.354971
vt 0.840845 0.345331
vt 0.840793 0.354819
vt 0.590607 0.404303
vt 0.590436 0.402005
vt 0.652761 0.401974
vt 0.652594 0.404268
vt 0.581949 0.405675
vt 0.581225 0.403468
vt 0.662145 0.403455
vt 0.661435 0.405674
vt 0.680717 0.432541
vt 0.681735 0.719817
vt 0.562284 0.719820
vt 0.563295 0.431893
vt 0.564632 0.423242
vt 0.568455 0.415636
vt 0.574425 0.409585
vt 0.669205 0.409655
vt 0.675367 0.415853
vt 0.679317 0.423660
vt 0.573059 0.407737
vt 0.670570 0.407781
vt 0.682998 0.432374
vt 0.561015 0.431726
vt 0.562454 0.422542
vt 0.566593 0.414292
vt 0.677251 0.414489
vt 0.681518 0.422952
vt 0.137727 0.422158
vt 0.140005 0.422158
vt 0.140005 0.709625
vt 0.137727 0.709458
vt 0.138529 0.719038
vt 0.136332 0.718327
vt 0.109678 0.737667
vt 0.047879 0.737667
vt 0.039274 0.736296
vt 0.031721 0.732423
vt 0.025726 0.726394
vt 0.021878 0.718797
vt 0.020516 0.710139
vt 0.020513 0.422158
vt 0.132387 0.726116
vt 0.126240 0.732297
vt 0.118496 0.736264
vt 0.134259 0.727485
vt 0.047709 0.739956
vt 0.109848 0.739959
vt 0.038562 0.738504
vt 0.030365 0.734299
vt 0.023857 0.727759
vt 0.019684 0.719514
vt 0.018238 0.710307
vt 0.018235 0.422158
vt 0.127596 0.734177
vt 0.119207 0.738467
vt 0.544066 0.140907
vt 0.541794 0.140915
vt 0.541873 0.078814
vt 0.544165 0.078860
vt 0.544066 0.150059
vt 0.541774 0.150116
vt 0.502410 0.140723
vt 0.502404 0.078799
vt 0.541799 0.069254
vt 0.544074 0.069241
vt 0.544095 0.159303
vt 0.541781 0.159450
vt 0.502450 0.150000
vt 0.500131 0.140675
vt 0.500119 0.078845
vt 0.502442 0.069255
vt 0.541787 0.059696
vt 0.544053 0.059846
vt 0.502395 0.159320
vt 0.500190 0.149976
vt 0.500164 0.069253
vt 0.502431 0.059692
vt 0.500127 0.159132
vt 0.500150 0.059843
vt 0.060021 0.902375
vt 0.059145 0.904490
vt 0.057021 0.905364
vt 0.017121 0.905346
vt 0.014528 0.903413
vt 0.014591 0.783417
vt 0.017184 0.781475
vt 0.057169 0.781464
vt 0.059317 0.782326
vt 0.060177 0.784462
vn -0.157915 0.488651 -0.858069
vn -0.009468 0.029296 -0.999526
vn -0.014579 0.029101 -0.999470
vn -0.160574 0.484368 -0.860002
vn -0.309232 0.950987 -0.000022
vn -0.649543 0.760287 -0.007604
vn -0.649535 0.760292 0.007762
vn -0.309234 0.950986 0.000015
vn -0.996748 0.078319 -0.018969
vn -0.956793 -0.290032 -0.020692
vn -0.956786 -0.290028 0.021096
vn -0.996740 0.078329 0.019344
vn -0.009467 0.029297 0.999526
vn -0.157914 0.488658 0.858065
vn -0.160637 0.484268 0.860046
vn -0.014690 0.029056 0.999470
vn -0.308350 0.951273 0.000014
vn -0.308374 0.951263 0.001975
vn -0.289351 0.876686 0.384314
vn -0.308350 0.951273 -0.000021
vn -0.308373 0.951263 -0.001984
vn -0.308425 0.951249 -0.000246
vn -0.308491 0.951227 -0.000208
vn -0.308544 0.951210 -0.000152
vn -0.308580 0.951198 -0.000082
vn -0.308585 0.951197 0.000077
vn -0.308548 0.951209 0.000148
vn -0.308494 0.951226 0.000205
vn -0.308427 0.951248 0.000244
vn -0.289265 0.876717 -0.384308
vn -0.397237 0.843275 -0.362064
vn -0.298440 -0.076098 -0.951390
vn -0.388655 0.278363 -0.878329
vn -0.629192 0.768379 0.117091
vn -0.909864 -0.275142 0.310556
vn -0.953300 0.096078 0.286338
vn -0.498141 0.810623 -0.307808
vn -0.562880 -0.162234 -0.810460
vn -0.632983 0.199284 -0.748076
vn -0.577858 0.784911 -0.223595
vn -0.773773 -0.230887 -0.589887
vn -0.827637 0.136503 -0.544412
vn -0.629192 0.768386 -0.117050
vn -0.909863 -0.275146 -0.310554
vn -0.953300 0.096081 -0.286336
vn -0.577852 0.784905 0.223633
vn -0.773776 -0.230883 0.589884
vn -0.827641 0.136481 0.544411
vn -0.498144 0.810624 0.307799
vn -0.562885 -0.162229 0.810458
vn -0.632980 0.199270 0.748082
vn -0.397244 0.843278 0.362049
vn -0.298441 -0.076091 0.951390
vn -0.388647 0.278356 0.878335
vn 0.309678 -0.950817 0.006760
vn 0.285867 -0.877703 0.384602
vn 0.284111 -0.878328 0.384476
vn 0.309665 -0.950838 0.003867
vn 0.117931 -0.362098 0.924650
vn 0.006443 -0.019783 0.999784
vn 0.001507 -0.020994 0.999779
vn 0.113559 -0.363654 0.924587
vn 0.308798 -0.951128 0.000019
vn 0.308800 -0.951127 -0.000019
vn 0.309455 -0.950914 -0.000079
vn 0.309491 -0.950902 -0.000150
vn 0.309544 -0.950885 -0.000206
vn 0.309611 -0.950863 -0.000244
vn 0.309665 -0.950838 -0.003873
vn 0.309678 -0.950817 -0.006775
vn 0.309609 -0.950864 0.000249
vn 0.309541 -0.950886 0.000210
vn 0.309486 -0.950904 0.000153
vn 0.309449 -0.950916 0.000081
vn -0.944077 -0.329076 -0.020692
vn -0.944069 -0.329074 0.021096
vn 0.006443 -0.019783 -0.999784
vn 0.001621 -0.020956 -0.999779
vn -0.286011 -0.114257 -0.951390
vn -0.550457 -0.200376 -0.810461
vn -0.761331 -0.269090 -0.589887
vn -0.897383 -0.313467 -0.310553
vn -0.897380 -0.313471 0.310556
vn -0.761330 -0.269095 0.589885
vn -0.550458 -0.200382 0.810458
vn -0.286009 -0.114263 0.951390
vn 0.948233 0.317576 -0.000000
vn 0.948233 0.317576 -0.000000
vn 0.948233 0.317576 -0.000000
vn 0.948233 0.317576 -0.000000
vn 0.948233 0.317576 -0.000000
vn 0.948233 0.317576 -0.000000
vn 0.948233 0.317576 -0.000000
vn 0.948233 0.317576 -0.000000
vn 0.948233 0.317576 -0.000000
vn 0.948233 0.317576 -0.000000
vn 0.117922 -0.362073 -0.924661
vn 0.113654 -0.363591 -0.924599
vn 0.285875 -0.877733 -0.384525
vn 0.284163 -0.878343 -0.384403
vn 0.175576 -0.915468 0.362065
vn -0.150177 -0.453856 0.878329
vn -0.077213 -0.996986 -0.007606
vn -0.055978 -0.991545 -0.117071
vn -0.759438 -0.650304 -0.018968
vn -0.713879 -0.639059 -0.286322
vn -0.759426 -0.650307 0.019343
vn -0.077200 -0.996985 0.007761
vn -0.150166 -0.453832 -0.878343
vn 0.175584 -0.915474 -0.362047
vn -0.394202 -0.533825 -0.748087
vn 0.074796 -0.948503 -0.307812
vn -0.588510 -0.597737 -0.544396
vn -0.004763 -0.974665 -0.223618
vn -0.713892 -0.639033 0.286346
vn -0.055963 -0.991546 0.117069
vn -0.588519 -0.597695 0.544431
vn -0.004761 -0.974665 0.223618
vn -0.394208 -0.533813 0.748093
vn 0.074795 -0.948500 0.307821
s 1
g AllObjects AllObjects Objects RoofBeam3
usemtl lambert3SG
f 9/15/25 10/16/26 13/17/27 12/18/28
s 2
f 16/55/29 15/56/30 18/57/31 17/58/32
s 1
f 15/109/33 14/110/34 19/111/35 18/112/36
f 33/35/37 32/36/38 35/37/39 34/38/40
s 2
f 32/64/41 36/63/42 35/75/43
f 36/63/42 32/64/41 9/65/44 11/66/45 20/67/46 23/68/47 26/69/48 29/59/49 16/55/29 17/58/32 37/62/50 40/70/51 43/71/52 46/72/53
f 11/66/45 12/76/54 21/77/55 20/67/46
s 1
f 12/18/28 13/17/27 22/21/56 21/22/57
s 2
f 17/58/32 18/57/31 38/61/58 37/62/50
s 1
f 18/112/36 19/111/35 39/117/59 38/118/60
s 2
f 20/67/46 21/77/55 24/78/61 23/68/47
s 1
f 21/22/57 22/21/56 25/26/62 24/27/63
s 2
f 23/68/47 24/78/61 27/73/64 26/69/48
s 1
f 24/27/63 25/26/62 28/30/65 27/31/66
s 2
f 26/69/48 27/73/64 30/60/67 29/59/49
s 1
f 27/119/66 28/120/65 31/114/68 30/113/69
f 14/110/34 15/109/33 30/113/69 31/114/68
s 2
f 15/56/30 16/55/29 29/59/49 30/60/67
f 37/62/50 38/61/58 41/74/70 40/70/51
s 1
f 38/118/60 39/117/59 42/125/71 41/126/72
s 2
f 40/70/51 41/74/70 44/79/73 43/71/52
s 1
f 41/48/72 42/49/71 45/44/74 44/43/75
s 2
f 43/71/52 44/79/73 47/80/76 46/72/53
s 1
f 44/43/75 45/44/74 48/40/77 47/39/78
f 34/38/40 35/37/39 47/39/78 48/40/77
s 2
f 35/75/43 36/63/42 46/72/53 47/80/76
s 5
f 57/81/79 56/82/80 59/83/81 58/84/82
s 1
f 56/46/83 55/42/84 60/41/85 59/47/86
s 5
f 64/87/87 61/88/88 76/89/89 73/90/90 70/91/91 67/92/92 52/93/93 50/94/94 57/81/79 58/84/82 88/86/95 85/95/96 82/96/97 79/97/98
s 1
f 14/110/34 63/115/99 66/116/100 19/111/35
f 34/38/40 60/41/85 55/42/84 33/35/37
f 49/19/101 54/20/102 13/17/27 10/16/26
f 54/20/102 69/25/103 22/21/56 13/17/27
f 69/25/103 72/29/104 25/26/62 22/21/56
f 72/29/104 75/33/105 28/30/65 25/26/62
f 75/127/105 78/121/106 31/114/68 28/120/65
f 78/121/106 63/115/99 14/110/34 31/114/68
f 66/116/100 81/124/107 39/117/59 19/111/35
f 81/124/107 84/130/108 42/125/71 39/117/59
f 84/52/108 87/50/109 45/44/74 42/49/71
f 87/50/109 90/45/110 48/40/77 45/44/74
f 90/45/110 60/41/85 34/38/40 48/40/77
s off
f 50/133/111 51/134/112 49/135/113 10/136/114 9/137/115 32/138/116 33/139/117 55/140/118 56/141/119 57/142/120
s 1
f 49/19/101 51/23/121 53/24/122 54/20/102
s 5
f 51/106/123 50/94/94 52/93/93 53/105/124
f 58/84/82 59/83/81 89/85/125 88/86/95
s 1
f 59/47/86 60/41/85 90/45/110 89/51/126
s 5
f 61/88/88 62/99/127 77/101/128 76/89/89
s 1
f 62/122/129 63/115/99 78/121/106 77/128/130
f 63/115/99 62/122/129 65/123/131 66/116/100
s 5
f 62/99/127 61/88/88 64/87/87 65/100/132
s 1
f 54/20/102 53/24/122 68/28/133 69/25/103
s 5
f 53/105/124 52/93/93 67/92/92 68/104/134
s 1
f 69/25/103 68/28/133 71/32/135 72/29/104
s 5
f 68/104/134 67/92/92 70/91/91 71/103/136
s 1
f 72/29/104 71/32/135 74/34/137 75/33/105
s 5
f 71/103/136 70/91/91 73/90/90 74/102/138
s 1
f 75/127/105 74/131/137 77/128/130 78/121/106
s 5
f 74/102/138 73/90/90 76/89/89 77/101/128
s 1
f 66/116/100 65/123/131 80/129/139 81/124/107
s 5
f 65/100/132 64/87/87 79/97/98 80/108/140
s 1
f 81/124/107 80/129/139 83/132/141 84/130/108
s 5
f 80/108/140 79/97/98 82/96/97 83/107/142
s 1
f 84/52/108 83/54/141 86/53/143 87/50/109
s 5
f 83/107/142 82/96/97 85/95/96 86/98/144
s 1
f 87/50/109 86/53/143 89/51/126 90/45/110
s 5
f 86/98/144 85/95/96 88/86/95 89/85/125
s 2
f 9/65/44 12/76/54 11/66/45
g default
v 3.745516 4.522680 -1.555632
v 3.750606 4.512488 -1.564116
v 2.537957 4.131415 -1.550992
v 2.538456 4.127512 -1.560272
v 2.541057 4.118543 -1.564116
v 2.413971 4.077151 -1.431230
v 2.414757 4.087223 -1.430928
v 2.422434 4.093790 -1.430197
v 2.422434 4.093790 -1.157452
v 2.414757 4.087223 -1.156722
v 2.413971 4.077151 -1.156420
v 2.501625 4.119582 -1.544975
v 2.500045 4.115001 -1.553911
v 2.501785 4.105752 -1.557612
v 2.469739 4.109197 -1.527987
v 2.465655 4.103801 -1.535589
v 2.466358 4.094213 -1.538737
v 2.444435 4.100955 -1.501528
v 2.438363 4.094912 -1.507051
v 2.438242 4.085056 -1.509338
v 2.428188 4.095664 -1.468188
v 2.420840 4.089205 -1.471092
v 2.420191 4.079177 -1.472294
v 3.745516 4.522680 -1.029023
v 3.750606 4.512488 -1.020539
v 2.543921 4.119475 -1.020539
v 2.541320 4.128445 -1.024382
v 2.540821 4.132348 -1.033662
v 2.428329 4.095710 -1.118536
v 2.420980 4.089250 -1.115633
v 2.420331 4.079223 -1.114430
v 2.444982 4.101133 -1.084361
v 2.438910 4.095090 -1.078838
v 2.438789 4.085235 -1.076551
v 2.470920 4.109581 -1.057239
v 2.466836 4.104185 -1.049638
v 2.467539 4.094598 -1.046489
v 2.503603 4.120226 -1.039826
v 2.502024 4.115646 -1.030890
v 2.503764 4.106397 -1.027189
v 3.804910 4.345758 -1.564116
v 3.808997 4.333208 -1.550992
v 3.807800 4.336884 -1.560272
v 2.600436 3.939583 -1.550992
v 2.598541 3.943032 -1.560272
v 2.595361 3.951813 -1.564116
v 3.804910 4.345758 -1.020539
v 3.807800 4.336884 -1.024382
v 3.808997 4.333208 -1.033662
v 2.603300 3.940516 -1.033662
v 2.601405 3.943965 -1.024382
v 2.598225 3.952745 -1.020539
v 2.484913 3.901958 -1.430197
v 2.474841 3.902743 -1.430928
v 2.468274 3.910421 -1.431230
v 2.484913 3.901958 -1.157452
v 2.474841 3.902743 -1.156722
v 2.468274 3.910421 -1.156420
v 2.564104 3.927750 -1.544975
v 2.560129 3.930521 -1.553911
v 2.556089 3.939022 -1.557612
v 2.532218 3.917365 -1.527987
v 2.525740 3.919321 -1.535589
v 2.520661 3.927483 -1.538737
v 2.506914 3.909123 -1.501528
v 2.498447 3.910432 -1.507051
v 2.492546 3.918326 -1.509338
v 2.490668 3.903832 -1.468188
v 2.480925 3.904725 -1.471092
v 2.474494 3.912447 -1.472294
v 2.490808 3.903878 -1.118536
v 2.481065 3.904770 -1.115633
v 2.474635 3.912492 -1.114430
v 2.507461 3.909302 -1.084361
v 2.498994 3.910610 -1.078838
v 2.493093 3.918504 -1.076551
v 2.533399 3.917749 -1.057239
v 2.526920 3.919705 -1.049638
v 2.521842 3.927868 -1.046489
v 2.566082 3.928394 -1.039826
v 2.562109 3.931166 -1.030890
v 2.558068 3.939666 -1.027189
vt 0.410493 0.962584
vt 0.408395 0.962848
vt 0.407102 0.773505
vt 0.408606 0.773536
vt 0.382301 0.963026
vt 0.380998 0.773680
vt 0.407055 0.767284
vt 0.408584 0.767273
vt 0.380798 0.963037
vt 0.379496 0.773733
vt 0.380949 0.767460
vt 0.407011 0.761063
vt 0.408522 0.761056
vt 0.379430 0.767483
vt 0.380908 0.761238
vt 0.406983 0.754842
vt 0.408509 0.754934
vt 0.379388 0.761261
vt 0.380843 0.755020
vt 0.379315 0.755131
vt 0.931897 0.057323
vt 0.935077 0.057703
vt 0.934074 0.343402
vt 0.931797 0.343464
vt 0.934078 0.353080
vt 0.931778 0.353080
vt 0.892269 0.343470
vt 0.892168 0.057323
vt 0.934065 0.362680
vt 0.931775 0.362692
vt 0.892287 0.353080
vt 0.889892 0.057323
vt 0.889992 0.343407
vt 0.934116 0.372168
vt 0.931809 0.372320
vt 0.892290 0.362692
vt 0.889987 0.353080
vt 0.892256 0.372320
vt 0.890000 0.362680
vt 0.889949 0.372168
vt 0.726798 0.390744
vt 0.726627 0.388445
vt 0.788952 0.388414
vt 0.788785 0.390709
vt 0.718140 0.392115
vt 0.717416 0.389909
vt 0.798336 0.389896
vt 0.797626 0.392114
vt 0.816908 0.418982
vt 0.817925 0.706258
vt 0.698475 0.706260
vt 0.699486 0.418334
vt 0.700823 0.409682
vt 0.704646 0.402076
vt 0.710616 0.396026
vt 0.805395 0.396096
vt 0.811558 0.402294
vt 0.815508 0.410101
vt 0.709250 0.394178
vt 0.806761 0.394222
vt 0.819189 0.418815
vt 0.697206 0.418167
vt 0.698645 0.408983
vt 0.702784 0.400733
vt 0.813442 0.400929
vt 0.817708 0.409393
vt 0.544060 0.422665
vt 0.546337 0.422664
vt 0.546338 0.710133
vt 0.544060 0.709965
vt 0.544861 0.719553
vt 0.542663 0.718837
vt 0.516008 0.738188
vt 0.454201 0.738175
vt 0.445595 0.736802
vt 0.438043 0.732929
vt 0.432050 0.726897
vt 0.428203 0.719301
vt 0.426842 0.710644
vt 0.426843 0.422663
vt 0.538718 0.726631
vt 0.532570 0.732814
vt 0.524825 0.736783
vt 0.540590 0.728000
vt 0.454030 0.740465
vt 0.516177 0.740477
vt 0.444883 0.739008
vt 0.436689 0.734807
vt 0.430181 0.728259
vt 0.426010 0.720017
vt 0.424564 0.710811
vt 0.424565 0.422663
vt 0.533927 0.734694
vt 0.525533 0.738990
vt 0.488192 0.143112
vt 0.485919 0.143120
vt 0.485998 0.081019
vt 0.488291 0.081065
vt 0.488192 0.152265
vt 0.485900 0.152321
vt 0.446536 0.142928
vt 0.446530 0.081004
vt 0.485924 0.071459
vt 0.488199 0.071446
vt 0.488220 0.161508
vt 0.485906 0.161655
vt 0.446575 0.152205
vt 0.444256 0.142880
vt 0.444245 0.081050
vt 0.446567 0.071460
vt 0.485912 0.061901
vt 0.488178 0.062051
vt 0.446521 0.161525
vt 0.444316 0.152181
vt 0.444289 0.071458
vt 0.446556 0.061897
vt 0.444252 0.161337
vt 0.444275 0.062048
vt 0.110623 0.902375
vt 0.109747 0.904490
vt 0.107623 0.905364
vt 0.067722 0.905346
vt 0.065130 0.903412
vt 0.065193 0.783417
vt 0.067785 0.781475
vt 0.107770 0.781464
vt 0.109918 0.782326
vt 0.110778 0.784462
vn -0.157924 0.488664 -0.858060
vn -0.009468 0.029296 -0.999526
vn -0.014580 0.029102 -0.999470
vn -0.160581 0.484380 -0.859994
vn -0.309232 0.950987 -0.000022
vn -0.649543 0.760287 -0.007604
vn -0.649535 0.760292 0.007762
vn -0.309234 0.950986 0.000015
vn -0.996748 0.078319 -0.018968
vn -0.956793 -0.290032 -0.020692
vn -0.956786 -0.290028 0.021096
vn -0.996740 0.078329 0.019343
vn -0.009468 0.029297 0.999526
vn -0.157918 0.488671 0.858057
vn -0.160641 0.484281 0.860039
vn -0.014690 0.029056 0.999470
vn -0.308350 0.951273 0.000013
vn -0.308373 0.951263 0.001975
vn -0.289344 0.876663 0.384372
vn -0.308350 0.951273 -0.000021
vn -0.308373 0.951263 -0.001985
vn -0.308425 0.951249 -0.000246
vn -0.308491 0.951227 -0.000208
vn -0.308544 0.951210 -0.000152
vn -0.308580 0.951199 -0.000082
vn -0.308585 0.951197 0.000076
vn -0.308548 0.951209 0.000148
vn -0.308494 0.951226 0.000205
vn -0.308426 0.951248 0.000243
vn -0.289257 0.876694 -0.384367
vn -0.397230 0.843271 -0.362081
vn -0.298442 -0.076098 -0.951389
vn -0.388646 0.278359 -0.878334
vn -0.629193 0.768380 0.117082
vn -0.909864 -0.275143 0.310554
vn -0.953300 0.096078 0.286336
vn -0.498136 0.810617 -0.307834
vn -0.562881 -0.162235 -0.810460
vn -0.632984 0.199283 -0.748076
vn -0.577855 0.784906 -0.223622
vn -0.773773 -0.230887 -0.589887
vn -0.827637 0.136503 -0.544411
vn -0.629189 0.768386 -0.117067
vn -0.909863 -0.275147 -0.310554
vn -0.953301 0.096081 -0.286331
vn -0.577853 0.784907 0.223624
vn -0.773777 -0.230884 0.589883
vn -0.827645 0.136481 0.544404
vn -0.498140 0.810621 0.307816
vn -0.562885 -0.162229 0.810458
vn -0.632985 0.199271 0.748078
vn -0.397244 0.843278 0.362049
vn -0.298442 -0.076091 0.951390
vn -0.388650 0.278355 0.878333
vn 0.309678 -0.950817 0.006761
vn 0.285864 -0.877703 0.384602
vn 0.284109 -0.878329 0.384475
vn 0.309665 -0.950838 0.003867
vn 0.117932 -0.362085 0.924655
vn 0.006443 -0.019783 0.999784
vn 0.001508 -0.020994 0.999779
vn 0.113560 -0.363642 0.924591
vn 0.308798 -0.951128 0.000019
vn 0.308800 -0.951127 -0.000019
vn 0.309455 -0.950914 -0.000079
vn 0.309491 -0.950902 -0.000149
vn 0.309544 -0.950885 -0.000205
vn 0.309611 -0.950863 -0.000243
vn 0.309665 -0.950838 -0.003873
vn 0.309678 -0.950817 -0.006775
vn 0.309609 -0.950864 0.000249
vn 0.309541 -0.950886 0.000210
vn 0.309486 -0.950904 0.000153
vn 0.309449 -0.950916 0.000081
vn -0.944077 -0.329076 -0.020692
vn -0.944069 -0.329074 0.021096
vn 0.006443 -0.019783 -0.999784
vn 0.001621 -0.020956 -0.999779
vn -0.286013 -0.114257 -0.951389
vn -0.550458 -0.200376 -0.810460
vn -0.761330 -0.269091 -0.589887
vn -0.897382 -0.313467 -0.310555
vn -0.897381 -0.313471 0.310554
vn -0.761331 -0.269095 0.589883
vn -0.550459 -0.200382 0.810458
vn -0.286010 -0.114263 0.951390
vn 0.948233 0.317576 0.000000
vn 0.948233 0.317576 0.000000
vn 0.948233 0.317576 0.000000
vn 0.948233 0.317576 0.000000
vn 0.948233 0.317576 0.000000
vn 0.948233 0.317576 0.000000
vn 0.948233 0.317576 0.000000
vn 0.948233 0.317576 0.000000
vn 0.948233 0.317576 0.000000
vn 0.948233 0.317576 0.000000
vn 0.117919 -0.362048 -0.924671
vn 0.113651 -0.363567 -0.924609
vn 0.285875 -0.877733 -0.384525
vn 0.284163 -0.878343 -0.384403
vn 0.175575 -0.915475 0.362049
vn -0.150178 -0.453863 0.878325
vn -0.077213 -0.996986 -0.007604
vn -0.055979 -0.991545 -0.117067
vn -0.759438 -0.650304 -0.018968
vn -0.713875 -0.639057 -0.286336
vn -0.759426 -0.650307 0.019344
vn -0.077200 -0.996985 0.007761
vn -0.150170 -0.453839 -0.878339
vn 0.175579 -0.915475 -0.362047
vn -0.394208 -0.533833 -0.748079
vn 0.074793 -0.948498 -0.307829
vn -0.588500 -0.597733 -0.544411
vn -0.004765 -0.974661 -0.223636
vn -0.713891 -0.639030 0.286356
vn -0.055963 -0.991545 0.117078
vn -0.588522 -0.597698 0.544425
vn -0.004764 -0.974665 0.223618
vn -0.394219 -0.533827 0.748077
vn 0.074792 -0.948503 0.307813
s 1
g AllObjects AllObjects Objects RoofBeam2
usemtl lambert3SG
f 91/143/145 92/144/146 95/145/147 94/146/148
s 2
f 98/183/149 97/184/150 100/185/151 99/186/152
s 1
f 97/237/153 96/238/154 101/239/155 100/240/156
f 115/163/157 114/164/158 117/165/159 116/166/160
s 2
f 114/192/161 118/191/162 117/203/163
f 118/191/162 114/192/161 91/193/164 93/194/165 102/195/166 105/196/167 108/197/168 111/187/169 98/183/149 99/186/152 119/190/170 122/198/171 125/199/172 128/200/173
f 93/194/165 94/204/174 103/205/175 102/195/166
s 1
f 94/146/148 95/145/147 104/149/176 103/150/177
s 2
f 99/186/152 100/185/151 120/189/178 119/190/170
s 1
f 100/240/156 101/239/155 121/245/179 120/246/180
s 2
f 102/195/166 103/205/175 106/206/181 105/196/167
s 1
f 103/150/177 104/149/176 107/154/182 106/155/183
s 2
f 105/196/167 106/206/181 109/201/184 108/197/168
s 1
f 106/155/183 107/154/182 110/158/185 109/159/186
s 2
f 108/197/168 109/201/184 112/188/187 111/187/169
s 1
f 109/247/186 110/248/185 113/242/188 112/241/189
f 96/238/154 97/237/153 112/241/189 113/242/188
s 2
f 97/184/150 98/183/149 111/187/169 112/188/187
f 119/190/170 120/189/178 123/202/190 122/198/171
s 1
f 120/246/180 121/245/179 124/253/191 123/254/192
s 2
f 122/198/171 123/202/190 126/207/193 125/199/172
s 1
f 123/176/192 124/177/191 127/172/194 126/171/195
s 2
f 125/199/172 126/207/193 129/208/196 128/200/173
s 1
f 126/171/195 127/172/194 130/168/197 129/167/198
f 116/166/160 117/165/159 129/167/198 130/168/197
s 2
f 117/203/163 118/191/162 128/200/173 129/208/196
s 5
f 139/209/199 138/210/200 141/211/201 140/212/202
s 1
f 138/174/203 137/170/204 142/169/205 141/175/206
s 5
f 146/215/207 143/216/208 158/217/209 155/218/210 152/219/211 149/220/212 134/221/213 132/222/214 139/209/199 140/212/202 170/214/215 167/223/216 164/224/217 161/225/218
s 1
f 96/238/154 145/243/219 148/244/220 101/239/155
f 116/166/160 142/169/205 137/170/204 115/163/157
f 131/147/221 136/148/222 95/145/147 92/144/146
f 136/148/222 151/153/223 104/149/176 95/145/147
f 151/153/223 154/157/224 107/154/182 104/149/176
f 154/157/224 157/161/225 110/158/185 107/154/182
f 157/255/225 160/249/226 113/242/188 110/248/185
f 160/249/226 145/243/219 96/238/154 113/242/188
f 148/244/220 163/252/227 121/245/179 101/239/155
f 163/252/227 166/258/228 124/253/191 121/245/179
f 166/180/228 169/178/229 127/172/194 124/177/191
f 169/178/229 172/173/230 130/168/197 127/172/194
f 172/173/230 142/169/205 116/166/160 130/168/197
s off
f 132/261/231 133/262/232 131/263/233 92/264/234 91/265/235 114/266/236 115/267/237 137/268/238 138/269/239 139/270/240
s 1
f 131/147/221 133/151/241 135/152/242 136/148/222
s 5
f 133/234/243 132/222/214 134/221/213 135/233/244
f 140/212/202 141/211/201 171/213/245 170/214/215
s 1
f 141/175/206 142/169/205 172/173/230 171/179/246
s 5
f 143/216/208 144/227/247 159/229/248 158/217/209
s 1
f 144/250/249 145/243/219 160/249/226 159/256/250
f 145/243/219 144/250/249 147/251/251 148/244/220
s 5
f 144/227/247 143/216/208 146/215/207 147/228/252
s 1
f 136/148/222 135/152/242 150/156/253 151/153/223
s 5
f 135/233/244 134/221/213 149/220/212 150/232/254
s 1
f 151/153/223 150/156/253 153/160/255 154/157/224
s 5
f 150/232/254 149/220/212 152/219/211 153/231/256
s 1
f 154/157/224 153/160/255 156/162/257 157/161/225
s 5
f 153/231/256 152/219/211 155/218/210 156/230/258
s 1
f 157/255/225 156/259/257 159/256/250 160/249/226
s 5
f 156/230/258 155/218/210 158/217/209 159/229/248
s 1
f 148/244/220 147/251/251 162/257/259 163/252/227
s 5
f 147/228/252 146/215/207 161/225/218 162/236/260
s 1
f 163/252/227 162/257/259 165/260/261 166/258/228
s 5
f 162/236/260 161/225/218 164/224/217 165/235/262
s 1
f 166/180/228 165/182/261 168/181/263 169/178/229
s 5
f 165/235/262 164/224/217 167/223/216 168/226/264
s 1
f 169/178/229 168/181/263 171/179/246 172/173/230
s 5
f 168/226/264 167/223/216 170/214/215 171/213/245
s 2
f 91/193/164 94/204/174 93/194/165
g default
v 3.745516 4.615491 -1.025178
v 3.750606 4.605299 -1.033662
v 2.537957 4.224225 -1.020538
v 2.538456 4.220322 -1.029819
v 2.541057 4.211353 -1.033662
v 2.413971 4.169962 -0.900776
v 2.414757 4.180034 -0.900474
v 2.422434 4.186600 -0.899743
v 2.422434 4.186600 -0.626998
v 2.414757 4.180034 -0.626268
v 2.413971 4.169962 -0.625966
v 2.501625 4.212391 -1.014522
v 2.500045 4.207812 -1.023457
v 2.501785 4.198562 -1.027158
v 2.469739 4.202006 -0.997534
v 2.465655 4.196610 -1.005135
v 2.466358 4.187023 -1.008283
v 2.444435 4.193766 -0.971075
v 2.438363 4.187721 -0.976597
v 2.438242 4.177866 -0.978885
v 2.428188 4.188474 -0.937735
v 2.420840 4.182014 -0.940638
v 2.420191 4.171988 -0.941841
v 3.745265 4.609774 -0.494534
v 2.543921 4.212285 -0.490084
v 2.541320 4.221255 -0.493929
v 2.540821 4.225158 -0.503209
v 2.428329 4.188519 -0.588082
v 2.420980 4.182061 -0.585179
v 2.420331 4.172033 -0.583976
v 2.444982 4.193944 -0.553907
v 2.438909 4.187900 -0.548384
v 2.438789 4.178045 -0.546097
v 2.470920 4.202392 -0.526785
v 2.466835 4.196995 -0.519184
v 2.467538 4.187407 -0.516036
v 2.503603 4.213037 -0.509372
v 2.502024 4.208456 -0.500437
v 2.503764 4.199207 -0.496735
v 3.804910 4.438568 -1.033662
v 3.808997 4.426018 -1.020538
v 3.807800 4.429693 -1.029819
v 2.600436 4.032394 -1.020538
v 2.598540 4.035842 -1.029819
v 2.595361 4.044622 -1.033662
v 3.802170 4.433666 -0.491655
v 3.808997 4.426018 -0.503209
v 2.603301 4.033326 -0.503209
v 2.601405 4.036775 -0.493929
v 2.598225 4.045556 -0.490084
v 2.484913 3.994768 -0.899743
v 2.474841 3.995554 -0.900474
v 2.468274 4.003231 -0.900776
v 2.484913 3.994768 -0.626998
v 2.474841 3.995554 -0.626268
v 2.468274 4.003231 -0.625966
v 2.564104 4.020559 -1.014522
v 2.560129 4.023331 -1.023457
v 2.556089 4.031832 -1.027158
v 2.532219 4.010175 -0.997534
v 2.525739 4.012132 -1.005135
v 2.520661 4.020294 -1.008283
v 2.506914 4.001933 -0.971075
v 2.498447 4.003242 -0.976597
v 2.492545 4.011136 -0.978885
v 2.490668 3.996642 -0.937735
v 2.480925 3.997535 -0.940638
v 2.474494 4.005257 -0.941841
v 2.490808 3.996688 -0.588082
v 2.481065 3.997580 -0.585179
v 2.474635 4.005302 -0.583976
v 2.507461 4.002112 -0.553907
v 2.498994 4.003420 -0.548384
v 2.493093 4.011314 -0.546097
v 2.533399 4.010560 -0.526785
v 2.526920 4.012515 -0.519184
v 2.521842 4.020678 -0.516036
v 2.566082 4.021204 -0.509372
v 2.562109 4.023976 -0.500437
v 2.558068 4.032477 -0.496735
vt 0.239258 0.968885
vt 0.237159 0.969141
vt 0.236910 0.780613
vt 0.238407 0.780653
vt 0.211186 0.969175
vt 0.210912 0.780649
vt 0.236906 0.774395
vt 0.238426 0.774396
vt 0.209691 0.969177
vt 0.209415 0.780694
vt 0.210883 0.774440
vt 0.236890 0.768184
vt 0.238407 0.768189
vt 0.209359 0.774448
vt 0.210859 0.768226
vt 0.236898 0.761976
vt 0.238425 0.762079
vt 0.209340 0.768237
vt 0.210825 0.762012
vt 0.209294 0.762125
vt 0.983169 0.344852
vt 0.983175 0.354524
vt 0.980874 0.354531
vt 0.983162 0.364124
vt 0.980872 0.364144
vt 0.941382 0.354531
vt 0.983213 0.373612
vt 0.980904 0.373762
vt 0.941384 0.364144
vt 0.939081 0.354524
vt 0.941353 0.373762
vt 0.939094 0.364124
vt 0.939043 0.373612
vt 0.320031 0.422135
vt 0.319861 0.419835
vt 0.382175 0.419870
vt 0.382003 0.422162
vt 0.311373 0.423507
vt 0.310651 0.421299
vt 0.391547 0.421354
vt 0.390841 0.423571
vt 0.410117 0.450462
vt 0.411744 0.737417
vt 0.291311 0.737725
vt 0.292685 0.449693
vt 0.294032 0.441030
vt 0.297871 0.433428
vt 0.303848 0.427394
vt 0.398604 0.427554
vt 0.404762 0.433756
vt 0.408716 0.441570
vt 0.302487 0.425544
vt 0.399972 0.425678
vt 0.412400 0.450301
vt 0.290405 0.449524
vt 0.291846 0.440311
vt 0.296018 0.432066
vt 0.406630 0.432382
vt 0.410926 0.440846
vt 0.275521 0.422663
vt 0.278894 0.423598
vt 0.277799 0.710132
vt 0.275521 0.709963
vt 0.276322 0.719545
vt 0.274125 0.718834
vt 0.247469 0.738177
vt 0.185668 0.738173
vt 0.177062 0.736801
vt 0.169507 0.732928
vt 0.163512 0.726900
vt 0.159666 0.719301
vt 0.158304 0.710644
vt 0.158306 0.422661
vt 0.270180 0.726624
vt 0.264032 0.732805
vt 0.256287 0.736774
vt 0.272051 0.727992
vt 0.185496 0.740463
vt 0.247639 0.740467
vt 0.176348 0.739010
vt 0.168152 0.734804
vt 0.161646 0.728263
vt 0.157472 0.720018
vt 0.156026 0.710811
vt 0.156028 0.422662
vt 0.265388 0.734686
vt 0.256998 0.738977
vt 0.534676 0.188940
vt 0.534690 0.191212
vt 0.472590 0.191313
vt 0.472629 0.189020
vt 0.543829 0.188913
vt 0.543892 0.191205
vt 0.534613 0.230596
vt 0.472689 0.230782
vt 0.463030 0.191415
vt 0.463011 0.189140
vt 0.553072 0.188858
vt 0.553225 0.191172
vt 0.543890 0.230530
vt 0.534572 0.232876
vt 0.472742 0.233067
vt 0.463145 0.230772
vt 0.453472 0.191455
vt 0.453616 0.189189
vt 0.553210 0.230557
vt 0.543872 0.232789
vt 0.463150 0.233050
vt 0.453582 0.230811
vt 0.553028 0.232826
vt 0.453740 0.233091
vt 0.176867 0.905266
vt 0.175992 0.907381
vt 0.173872 0.908257
vt 0.134055 0.908328
vt 0.131471 0.906391
vt 0.132540 0.785554
vt 0.174762 0.784729
vt 0.177041 0.787411
vt 0.980891 0.344915
vt 0.941416 0.344894
vt 0.940272 0.060508
vt 0.983253 0.058769
vt 0.981889 0.060366
vt 0.939145 0.344829
vn -0.157919 0.488658 -0.858065
vn -0.009468 0.029296 -0.999526
vn -0.014579 0.029102 -0.999470
vn -0.160577 0.484374 -0.859998
vn -0.307383 0.951574 0.004678
vn -0.649583 0.760253 -0.007607
vn -0.649568 0.760264 0.007761
vn -0.307385 0.951573 0.004716
vn -0.996745 0.078354 -0.018968
vn -0.956794 -0.290029 -0.020691
vn -0.956786 -0.290026 0.021095
vn -0.996737 0.078371 0.019344
vn -0.306499 0.951859 0.004724
vn -0.306516 0.951842 0.006649
vn -0.286934 0.877430 0.384428
vn -0.306499 0.951860 0.004690
vn -0.306533 0.951856 0.002711
vn -0.306575 0.951836 0.004463
vn -0.306641 0.951815 0.004501
vn -0.306693 0.951798 0.004556
vn -0.306729 0.951786 0.004626
vn -0.306735 0.951783 0.004784
vn -0.306698 0.951795 0.004856
vn -0.306644 0.951812 0.004913
vn -0.306576 0.951833 0.004951
vn -0.289279 0.876744 -0.384235
vn -0.397232 0.843296 -0.362020
vn -0.298446 -0.076099 -0.951388
vn -0.388649 0.278350 -0.878335
vn -0.629177 0.768395 0.117072
vn -0.909863 -0.275143 0.310556
vn -0.953299 0.096104 0.286331
vn -0.498144 0.810620 -0.307810
vn -0.562879 -0.162235 -0.810461
vn -0.632971 0.199273 -0.748089
vn -0.577871 0.784890 -0.223636
vn -0.773771 -0.230887 -0.589890
vn -0.827628 0.136506 -0.544424
vn -0.629213 0.768364 -0.117084
vn -0.909865 -0.275147 -0.310549
vn -0.953299 0.096085 -0.286338
vn -0.577858 0.784904 0.223620
vn -0.773776 -0.230884 0.589884
vn -0.827638 0.136490 0.544413
vn -0.498160 0.810609 0.307813
vn -0.562888 -0.162231 0.810456
vn -0.632974 0.199284 0.748084
vn -0.397256 0.843266 0.362063
vn -0.298448 -0.076092 0.951388
vn -0.388662 0.278391 0.878317
vn -0.008224 0.016256 0.999834
vn -0.125260 0.359900 0.924544
vn 0.309694 -0.950788 0.009596
vn 0.262549 -0.801730 0.536933
vn 0.261806 -0.804486 0.533160
vn 0.309677 -0.950820 0.006530
vn 0.308798 -0.951128 0.000019
vn 0.308801 -0.951127 -0.000019
vn 0.309455 -0.950914 -0.000079
vn 0.309491 -0.950902 -0.000150
vn 0.309545 -0.950885 -0.000206
vn 0.309611 -0.950863 -0.000244
vn 0.309666 -0.950838 -0.003873
vn 0.309678 -0.950817 -0.006775
vn 0.309609 -0.950864 0.000249
vn 0.309541 -0.950886 0.000210
vn 0.309487 -0.950904 0.000153
vn 0.309449 -0.950916 0.000081
vn -0.944077 -0.329077 -0.020691
vn -0.944068 -0.329075 0.021096
vn -0.001774 -0.003685 0.999992
vn 0.517164 0.183053 0.836082
vn 0.405567 0.145714 0.902376
vn 0.006443 -0.019783 -0.999784
vn 0.001621 -0.020956 -0.999779
vn -0.286017 -0.114259 -0.951388
vn -0.550458 -0.200375 -0.810461
vn -0.761329 -0.269089 -0.589889
vn -0.897384 -0.313467 -0.310549
vn -0.897379 -0.313472 0.310557
vn -0.761330 -0.269096 0.589884
vn -0.550462 -0.200385 0.810455
vn -0.286015 -0.114266 0.951388
vn 0.946597 0.322343 0.007021
vn 0.946597 0.322343 0.007021
vn 0.946597 0.322343 0.007021
vn 0.946597 0.322343 0.007021
vn 0.946597 0.322343 0.007021
vn 0.946597 0.322343 0.007021
vn 0.117927 -0.362073 -0.924660
vn 0.113659 -0.363592 -0.924599
vn 0.285880 -0.877749 -0.384485
vn 0.284168 -0.878358 -0.384364
vn 0.175581 -0.915461 0.362081
vn 0.109405 -0.365111 0.924513
vn -0.150179 -0.453857 0.878328
vn -0.077236 -0.996984 -0.007603
vn -0.055986 -0.991546 -0.117059
vn -0.759419 -0.650325 -0.018968
vn -0.713881 -0.639054 -0.286330
vn -0.759407 -0.650328 0.019342
vn -0.077220 -0.996984 0.007758
vn -0.150186 -0.453840 -0.878336
vn 0.175574 -0.915468 -0.362067
vn -0.394227 -0.533807 -0.748088
vn 0.074761 -0.948490 -0.307859
vn -0.588517 -0.597715 -0.544412
vn -0.004778 -0.974658 -0.223650
vn -0.713893 -0.639029 0.286355
vn -0.055926 -0.991550 0.117049
vn -0.588532 -0.597689 0.544425
vn -0.004696 -0.974673 0.223586
vn -0.394228 -0.533819 0.748078
vn 0.074833 -0.948506 0.307794
s 1
g AllObjects AllObjects Objects RoofBeam1
usemtl lambert3SG
f 173/271/265 174/272/266 177/273/267 176/274/268
s 2
f 180/304/269 179/305/270 182/306/271 181/307/272
s 1
f 179/358/273 178/359/274 183/360/275 182/361/276
s 2
f 196/313/277 199/312/278 198/324/279
f 199/312/278 196/313/277 173/314/280 175/315/281 184/316/282 187/317/283 190/318/284 193/308/285 180/304/269 181/307/272 200/311/286 203/319/287 206/320/288 209/321/289
f 175/315/281 176/325/290 185/326/291 184/316/282
s 1
f 176/274/268 177/273/267 186/277/292 185/278/293
s 2
f 181/307/272 182/306/271 201/310/294 200/311/286
s 1
f 182/361/276 183/360/275 202/366/295 201/367/296
s 2
f 184/316/282 185/326/291 188/327/297 187/317/283
s 1
f 185/278/293 186/277/292 189/282/298 188/283/299
s 2
f 187/317/283 188/327/297 191/322/300 190/318/284
s 1
f 188/283/299 189/282/298 192/286/301 191/287/302
s 2
f 190/318/284 191/322/300 194/309/303 193/308/285
s 1
f 191/368/302 192/369/301 195/363/304 194/362/305
f 178/359/274 179/358/273 194/362/305 195/363/304
s 2
f 179/305/270 180/304/269 193/308/285 194/309/303
f 200/311/286 201/310/294 204/323/306 203/319/287
s 1
f 201/367/296 202/366/295 205/374/307 204/375/308
s 2
f 203/319/287 204/323/306 207/328/309 206/320/288
s 1
f 204/297/308 205/298/307 208/295/310 207/294/311
s 2
f 206/320/288 207/328/309 210/329/312 209/321/289
s 1
f 207/294/311 208/295/310 211/293/313 210/292/314
f 197/390/315 198/291/316 210/292/314 211/293/313
s 2
f 198/324/279 199/312/278 209/321/289 210/329/312
s 4
f 219/330/317 218/331/318 221/332/319 220/333/320
f 226/336/321 223/337/322 238/338/323 235/339/324 232/340/325 229/341/326 215/342/327 213/343/328 219/330/317 220/333/320 250/335/329 247/344/330 244/345/331 241/346/332
s 1
f 178/359/274 225/364/333 228/365/334 183/360/275
f 197/390/315 222/391/335 218/392/336 196/394/337
f 212/275/338 217/276/339 177/273/267 174/272/266
f 217/276/339 231/281/340 186/277/292 177/273/267
f 231/281/340 234/285/341 189/282/298 186/277/292
f 234/285/341 237/289/342 192/286/301 189/282/298
f 237/376/342 240/370/343 195/363/304 192/369/301
f 240/370/343 225/364/333 178/359/274 195/363/304
f 228/365/334 243/373/344 202/366/295 183/360/275
f 243/373/344 246/379/345 205/374/307 202/366/295
f 246/301/345 249/299/346 208/295/310 205/298/307
f 249/299/346 252/296/347 211/293/313 208/295/310
f 252/296/347 222/391/335 197/390/315 211/293/313
f 213/382/348 214/383/349 212/384/350 174/385/351 173/386/352 196/387/337 218/388/336 219/389/353
f 212/275/338 214/279/354 216/280/355 217/276/339
s 4
f 214/355/356 213/343/328 215/342/327 216/354/357
f 220/333/320 221/332/319 251/334/358 250/335/329
s 1
f 221/395/359 222/391/335 252/296/347 251/300/360
s 4
f 223/337/322 224/348/361 239/350/362 238/338/323
s 1
f 224/371/363 225/364/333 240/370/343 239/377/364
f 225/364/333 224/371/363 227/372/365 228/365/334
s 4
f 224/348/361 223/337/322 226/336/321 227/349/366
s 1
f 217/276/339 216/280/355 230/284/367 231/281/340
s 4
f 216/354/357 215/342/327 229/341/326 230/353/368
s 1
f 231/281/340 230/284/367 233/288/369 234/285/341
s 4
f 230/353/368 229/341/326 232/340/325 233/352/370
s 1
f 234/285/341 233/288/369 236/290/371 237/289/342
s 4
f 233/352/370 232/340/325 235/339/324 236/351/372
s 1
f 237/376/342 236/380/371 239/377/364 240/370/343
s 4
f 236/351/372 235/339/324 238/338/323 239/350/362
s 1
f 228/365/334 227/372/365 242/378/373 243/373/344
s 4
f 227/349/366 226/336/321 241/346/332 242/357/374
s 1
f 243/373/344 242/378/373 245/381/375 246/379/345
s 4
f 242/357/374 241/346/332 244/345/331 245/356/376
s 1
f 246/301/345 245/303/375 248/302/377 249/299/346
s 4
f 245/356/376 244/345/331 247/344/330 248/347/378
s 1
f 249/299/346 248/302/377 251/300/360 252/296/347
s 4
f 248/347/378 247/344/330 250/335/329 251/334/358
s 2
f 173/314/280 176/325/290 175/315/281
s 1
f 196/393/337 198/291/316 197/390/315
f 218/392/336 222/391/335 221/395/359
g default
v -2.003304 0.000000 3.998669
v 4.000000 0.000000 3.998669
v -2.003304 0.367822 3.998669
v 4.000000 0.367822 3.998669
v -2.003304 0.367822 -0.286094
v 4.000000 0.367822 -0.286094
v -2.003304 0.000000 -0.286094
v 4.000000 0.000000 -0.286094
vt 0.592329 0.001942
vt 0.829155 0.001943
vt 0.592329 0.016453
vt 0.829156 0.016453
vt 0.592328 0.185485
vt 0.829155 0.185484
vt 0.592328 0.199995
vt 0.829155 0.199994
vt 0.592328 0.369023
vt 0.829154 0.369027
vt 0.998192 0.001940
vt 0.998192 0.016451
vt 0.423298 0.001942
vt 0.423298 0.016453
vn 0.000000 0.000000 1.000000
vn 0.000000 0.000000 1.000000
vn 0.000000 0.000000 1.000000
vn 0.000000 0.000000 1.000000
vn 0.000000 1.000000 0.000000
vn 0.000000 1.000000 0.000000
vn 0.000000 1.000000 0.000000
vn 0.000000 1.000000 0.000000
vn 0.000000 0.000000 -1.000000
vn 0.000000 0.000000 -1.000000
vn 0.000000 0.000000 -1.000000
vn 0.000000 0.000000 -1.000000
vn 0.000000 -1.000000 0.000000
vn 0.000000 -1.000000 0.000000
vn 0.000000 -1.000000 0.000000
vn 0.000000 -1.000000 0.000000
vn 1.000000 0.000000 0.000000
vn 1.000000 0.000000 0.000000
vn 1.000000 0.000000 0.000000
vn 1.000000 0.000000 0.000000
vn -1.000000 0.000000 0.000000
vn -1.000000 0.000000 0.000000
vn -1.000000 0.000000 0.000000
vn -1.000000 0.000000 0.000000
s off
g AllObjects AllObjects Objects Sand_WB
usemtl lambert5SG
f 253/396/379 254/397/380 256/399/381 255/398/382
f 255/398/383 256/399/384 258/401/385 257/400/386
f 257/400/387 258/401/388 260/403/389 259/402/390
f 259/402/391 260/403/392 254/405/393 253/404/394
f 254/397/395 260/406/396 258/407/397 256/399/398
f 259/408/399 253/396/400 255/398/401 257/409/402
